<?xml version="1.0" standalone="no"?><!DOCTYPE svg PUBLIC "-//W3C//DTD SVG 1.1//EN" "http://www.w3.org/Graphics/SVG/1.1/DTD/svg11.dtd"><svg t="1556347699027" class="icon" style="" viewBox="0 0 1024 1024" version="1.1" xmlns="http://www.w3.org/2000/svg" p-id="5741" xmlns:xlink="http://www.w3.org/1999/xlink" width="128" height="128"><defs><style type="text/css"></style></defs><path d="M512 0C229.714286 0 0 229.714286 0 512s229.714286 512 512 512 512-229.714286 512-512S794.285714 0 512 0z m0 972.731429c-254.068571 0-460.765714-206.685714-460.765714-460.742858S257.931429 51.268571 512 51.268571 972.754286 257.931429 972.754286 512 766.057143 972.731429 512 972.731429z" p-id="5742"></path><path d="M489.634286 361.211429a53.977143 53.977143 0 1 0-53.965715-53.988572 53.988571 53.988571 0 0 0 53.965715 53.988572zM541.657143 427.748571H427.177143v56.937143h56.342857v260.982857h-64.045714v52.182858h188.617143v-52.182858h-66.434286V427.748571z" p-id="5743"></path></svg>