<?xml version="1.0" standalone="no"?><!DOCTYPE svg PUBLIC "-//W3C//DTD SVG 1.1//EN" "http://www.w3.org/Graphics/SVG/1.1/DTD/svg11.dtd"><svg t="1536023582438" class="icon" style="" viewBox="0 0 1024 1024" version="1.1" xmlns="http://www.w3.org/2000/svg" p-id="2835" xmlns:xlink="http://www.w3.org/1999/xlink" width="200" height="200"><defs><style type="text/css"></style></defs><path d="M512 936.5c-57.3 0-112.9-11.2-165.2-33.4-50.5-21.4-95.9-52-134.9-91s-69.6-84.4-91-134.9C98.8 624.9 87.5 569.3 87.5 512c0-57.3 11.2-112.9 33.4-165.2 21.4-50.5 52-95.9 91-134.9s84.4-69.6 134.9-91C399.1 98.8 454.7 87.5 512 87.5c57.3 0 112.9 11.2 165.2 33.4 50.5 21.4 95.9 52 134.9 91s69.6 84.4 91 134.9c22.1 52.3 33.4 107.9 33.4 165.2 0 57.3-11.2 112.9-33.4 165.2-21.4 50.5-52 95.9-91 134.9s-84.4 69.6-134.9 91c-52.3 22.1-107.9 33.4-165.2 33.4z m0-801.3c-207.8 0-376.8 169-376.8 376.8s169 376.8 376.8 376.8 376.8-169 376.8-376.8-169-376.8-376.8-376.8z" fill="#666666" p-id="2836"></path><path d="M512 717.1c-13.2 0-23.8-10.7-23.8-23.8V330.8c0-13.2 10.7-23.8 23.8-23.8s23.8 10.7 23.8 23.8v362.5c0 13.1-10.6 23.8-23.8 23.8z" fill="#666666" p-id="2837"></path><path d="M693.2 535.8H330.8c-13.2 0-23.8-10.7-23.8-23.8s10.7-23.8 23.8-23.8h362.5c13.2 0 23.8 10.7 23.8 23.8s-10.7 23.8-23.9 23.8z" fill="#666666" p-id="2838"></path></svg>