<?xml version="1.0" standalone="no"?><!DOCTYPE svg PUBLIC "-//W3C//DTD SVG 1.1//EN" "http://www.w3.org/Graphics/SVG/1.1/DTD/svg11.dtd"><svg t="1539665934737" class="icon" style="" viewBox="0 0 1129 1024" version="1.1" xmlns="http://www.w3.org/2000/svg" p-id="10354" xmlns:xlink="http://www.w3.org/1999/xlink" width="220.5078125" height="200"><defs><style type="text/css"></style></defs><path d="M863.548708 320.727146l104.226574-103.450632a32.439395 32.439395 0 0 0 0-46.131022 33.027609 33.027609 0 0 0-46.468932 0l-104.351727 103.575784A390.561805 390.561805 0 0 1 863.548708 320.727146zM597.475584 185.024847v-152.685423a32.439395 32.439395 0 0 0-32.539516-32.339274 32.439395 32.439395 0 0 0-32.539517 32.339274v152.597817c10.650434-0.863549 21.350929-1.601945 32.226637-1.601946 11.075951 0.050061 21.976689 0.788458 32.852396 1.689552zM271.004112 314.882549A389.885984 389.885984 0 0 1 317.886046 270.028077l-106.379189-105.640792a32.702214 32.702214 0 0 0-46.043415 0 32.151545 32.151545 0 0 0 0 45.705505zM966.273458 959.277613h-75.979771v-387.971159c0-178.554339-145.852125-323.292612-325.72056-323.292612S238.852566 392.78966 238.852566 571.344v387.971158h-75.992286a32.464425 32.464425 0 0 0-32.539516 32.339274 32.464425 32.464425 0 0 0 32.539516 32.339273h803.475754a32.339273 32.339273 0 1 0 0-64.666032z m-141.133895 0H303.994176V592.920202c5.131231-188.9795 118.969478-278.000108 262.819171-278.000108S822.248552 407.695262 825.139563 592.920202zM1096.569192 528.241655H953.257652a384.091447 384.091447 0 0 1 2.177644 40.411577v24.26697h141.133896a32.464425 32.464425 0 0 0 32.539516-32.339273 32.45191 32.45191 0 0 0-32.539516-32.339274zM173.723473 568.653232a383.778567 383.778567 0 0 1 2.177644-40.411577H32.539517a32.439395 32.439395 0 0 0-32.539517 32.314243 32.45191 32.45191 0 0 0 32.539517 32.364304h141.158925z"  p-id="10355"></path><path d="M662.905043 571.206332H545.662662l70.785963-70.29787a32.13903 32.13903 0 0 0 0-45.718021 32.752275 32.752275 0 0 0-46.068446 0l-122.82416 121.923065a32.164061 32.164061 0 0 0 0 45.718021 31.713513 31.713513 0 0 0 23.25324 9.010943h117.279926l-70.823509 70.285356a32.13903 32.13903 0 0 0 0 45.71802 32.752275 32.752275 0 0 0 46.068446 0l122.836675-121.898035a32.164061 32.164061 0 0 0 0-45.71802 31.713513 31.713513 0 0 0-23.265754-9.023459z"  p-id="10356"></path></svg>