<?xml version="1.0" standalone="no"?><!DOCTYPE svg PUBLIC "-//W3C//DTD SVG 1.1//EN" "http://www.w3.org/Graphics/SVG/1.1/DTD/svg11.dtd"><svg t="1554275700256" class="icon" style="" viewBox="0 0 1024 1024" version="1.1" xmlns="http://www.w3.org/2000/svg" p-id="6661" xmlns:xlink="http://www.w3.org/1999/xlink" width="128" height="128"><defs><style type="text/css"></style></defs><path d="M949.991078 265.673721c-1.261354-0.756813-2.648844-1.513625-4.036334-2.018167l-186.680455-92.583414c-6.432908-3.279521-14.253305-3.279521-20.686212 0l-122.225244 60.292741V114.815732c0.126135-0.756813 0.126135-1.639761 0.126135-2.396573-0.126135-8.451075-4.793147-16.397607-12.361273-20.307806-0.126135-0.126135-0.252271-0.126135-0.378406-0.252271-0.252271-0.126135-0.378406-0.252271-0.630677-0.378406L414.924532 2.302918c-6.432908-3.153386-13.874899-3.027251-20.307806 0.126135L77.764495 158.458595c-1.38749 0.504542-2.648844 1.261354-3.910199 2.018167-4.41474 2.77498-7.694262 6.937449-9.460158 11.730597 0 0.126135-0.126135 0.252271-0.126136 0.25227-0.126135 0.378406-0.252271 0.756813-0.378406 1.009084 0 0.126135-0.126135 0.378406-0.126135 0.504542-0.126135 0.252271-0.126135 0.504542-0.252271 0.882948 0 0.252271-0.126135 0.504542-0.126136 0.756812 0 0.252271-0.126135 0.378406-0.126135 0.630678-0.126135 1.009084-0.252271 2.144303-0.378407 3.279521v558.780009c0 9.081752 5.297689 17.406691 13.370357 21.190755l187.815674 89.051622c0.504542 0.252271 0.882948 0.378406 1.38749 0.630677 0.252271 0.126135 0.378406 0.126135 0.630677 0.252271 0.126135 0.126135 0.378406 0.126135 0.504542 0.252271 1.009084 0.378406 2.018167 0.630677 3.02725 0.882948 0.504542 0.126135 0.882948 0.126135 1.38749 0.252271h0.252271c0.378406 0 0.756813 0.126135 1.135219 0.126135H276.04941c0.504542 0 0.882948-0.126135 1.38749-0.126135h0.126135c2.396573-0.378406 4.793147-1.009084 7.18972-2.144303l122.225244-60.166606v118.693451c0 8.955616 5.045418 17.028285 13.118086 20.938484l188.572486 93.466363c1.261354 0.630677 2.648844 1.135219 3.910199 1.513625 0.126135 0 0.252271 0.126135 0.504542 0.126135 0.378406 0.126135 0.630677 0.126135 1.009083 0.252271 0.252271 0 0.378406 0.126135 0.630677 0.126136s0.630677 0.126135 0.882948 0.126135c0.126135 0 0.378406 0 0.504542 0.126136 0.378406 0 0.630677 0.126135 1.009084 0.126135H620.777573c3.027251-0.252271 6.054501-1.009084 8.829481-2.396573l318.365857-156.786355c7.946533-4.036334 13.118086-12.109002 13.118086-21.064619V285.603121c-0.126135-8.072668-4.288605-15.640795-11.099919-19.9294z m-201.059895-47.553061l135.721736 67.356326L619.137813 416.153304l-135.721736-67.356326 265.515106-130.676318zM405.085967 49.477573l134.081975 63.572263-264.884428 130.424047-62.941586-29.767964-71.140389-33.678163 264.884428-130.550183z m-295.28307 167.760138l141.271695 66.97792v506.307665l-141.271695-66.977919V217.237711z m294.526258 520.3087l-106.584449 52.346208V283.96336l169.147628-83.249392 102.67425-50.580312v104.06174l-148.713686 73.410827c-0.882948 0.378406-1.765896 0.882948-2.648845 1.38749-5.045418 3.153386-8.57721 7.820397-10.216971 13.370357v0.126136c-0.126135 0.378406-0.252271 0.882948-0.378406 1.387489 0 0.126135 0 0.252271-0.126135 0.252271-0.126135 0.378406-0.126135 0.756813-0.252271 1.261355 0 0.126135 0 0.252271-0.126136 0.378406 0 0.378406-0.126135 0.756813-0.126135 1.135219V736.537327c-0.882948 0.252271-1.765896 0.630677-2.648844 1.009084z m49.697364-350.782665l141.776237 70.257441v505.929259l-141.776237-70.383577v-505.803123z m188.572486 576.1867V456.895052l271.569607-133.703569v505.929259L642.599005 962.950446z" p-id="6662"></path><path d="M180.438745 322.308535c-8.955616 0-16.145337 7.315856-16.145337 16.145336v330.72713c0 8.955616 7.315856 16.145337 16.145337 16.145337 9.081752 0 16.145337-7.315856 16.145336-16.145337V338.580007c0-8.955616-7.315856-16.271472-16.145336-16.271472zM524.788502 481.617598c-9.081752 0-16.649878 7.568127-16.649878 16.649879v352.674696c0 9.081752 7.568127 16.649878 16.649878 16.649879 9.207887 0 16.649878-7.568127 16.649878-16.776014V498.267477c0-9.081752-7.568127-16.649878-16.649878-16.649879zM579.657419 354.977614c1.513625 6.559043 5.928366 11.982867 12.487409 15.388524 4.16247 2.144303 8.955616 3.279521 13.874899 3.279522 2.396573 0 4.919282-0.252271 7.441991-0.882948 15.76693-3.531792 26.110037-17.028285 23.208921-30.272506-1.513625-6.559043-5.928366-11.982867-12.487409-15.388524-6.306772-3.153386-13.874899-4.036334-21.316889-2.270438-15.76693 3.279521-26.110037 16.902149-23.208922 30.14637zM760.409508 303.89276c0.630677 0 1.135219 0 1.765896-0.126135 16.019201-0.756813 28.632745-12.361273 28.002068-25.983901-0.378406-6.685178-3.784063-12.865815-9.712429-17.280556-5.80223-4.16247-12.865815-6.432908-20.686212-5.928366-16.019201 0.756813-28.632745 12.487409-28.002068 25.983901 0.504542 13.118086 13.244221 23.335057 28.632745 23.335057z m-0.252271-40.237206h1.38749c5.045418 0 9.838564 1.513625 13.496492 4.16247 3.784063 2.648844 5.928366 6.306772 6.180637 10.469241 0.504542 8.57721-8.324939 16.019201-19.424858 16.523743h-1.261355c-10.595377 0-19.298723-6.306772-19.803264-14.631711-0.378406-8.57721 8.324939-16.019201 19.424858-16.523743zM234.550849 187.217476c1.513625 6.559043 5.928366 11.982867 12.487409 15.388524 4.16247 2.144303 8.955616 3.279521 13.874899 3.279522 2.396573 0 4.919282-0.252271 7.441991-0.882948 15.76693-3.531792 26.110037-17.028285 23.208921-30.272507-1.513625-6.559043-5.928366-11.982867-12.487409-15.388524-6.180637-3.153386-13.622628-4.036334-21.316889-2.270438-15.76693 3.279521-26.110037 16.902149-23.208922 30.146371zM396.508757 130.204256c5.297689 3.784063 11.856732 5.928366 18.920317 5.928366 0.630677 0 1.009084 0 1.765896-0.126135 16.019201-0.630677 28.632745-12.361273 28.002068-25.857766-0.252271-6.685178-3.657928-12.865815-9.712429-17.280556-5.676095-4.16247-12.613544-6.306772-20.686213-5.928365-16.145337 0.756813-28.632745 12.487409-28.002068 25.983901 0.378406 6.811314 3.784063 12.865815 9.712429 17.280555zM415.176803 95.895416h1.261354c5.171553 0 9.9647 1.513625 13.496492 4.16247 3.784063 2.77498 5.928366 6.432908 6.180637 10.469241 0.504542 8.57721-8.198804 16.019201-19.424858 16.523743-5.80223-0.126135-10.721513-1.261354-14.757847-4.162469-3.784063-2.648844-5.928366-6.306772-6.180636-10.469242-0.504542-8.57721 8.198804-16.019201 19.424858-16.523743zM878.724553 397.485258c-5.045418-3.153386-11.35219-3.405657-16.649879-0.630677l-168.012409 84.763017c-5.80223 2.901115-9.334023 8.829481-9.334022 15.262389v377.144972c0 6.054501 3.027251 11.478325 8.072668 14.631711 2.648844 1.765896 5.80223 2.522709 8.955616 2.522709 2.648844 0 5.297689-0.630677 7.694262-1.892031l168.012409-84.763018c5.80223-2.901115 9.334023-8.829481 9.334023-15.262388V411.990834c0-5.928366-3.027251-11.478325-8.072668-14.505576z m-26.110037 381.181307L718.784812 846.401297V507.349229l133.829704-67.734733v339.052069z" p-id="6663"></path></svg>