<?xml version="1.0" standalone="no"?><!DOCTYPE svg PUBLIC "-//W3C//DTD SVG 1.1//EN" "http://www.w3.org/Graphics/SVG/1.1/DTD/svg11.dtd"><svg t="1555897273695" class="icon" style="" viewBox="0 0 1024 1024" version="1.1" xmlns="http://www.w3.org/2000/svg" p-id="13995" xmlns:xlink="http://www.w3.org/1999/xlink" width="128" height="128"><defs><style type="text/css"></style></defs><path d="M248.375 897.517c-29.869 0-54.17-23.575-54.17-52.553V256.18c0-28.978 24.301-52.553 54.17-52.553h107.53c24.646 0 44.697-19.868 44.697-44.289v-5.473c0-20.043 16.879-36.349 37.627-36.349h153.615c20.75 0 37.631 16.306 37.631 36.349v5.473c0 24.421 20.049 44.289 44.691 44.289h107.532c29.869 0 54.17 23.575 54.17 52.553v588.784c0 28.978-24.301 52.553-54.17 52.553H248.375z" fill="#FFFFFF" p-id="13996"></path><path d="M591.845 142.517c6.964 0 12.63 5.091 12.63 11.349v5.473c0 38.206 31.264 69.289 69.692 69.289h107.532c16.084 0 29.17 12.36 29.17 27.553v588.783c0 15.193-13.085 27.553-29.17 27.553H248.376c-16.084 0-29.17-12.36-29.17-27.553V256.18c0-15.193 13.086-27.553 29.17-27.553h107.53c38.431 0 69.697-31.083 69.697-69.289v-5.473c0-6.258 5.665-11.349 12.627-11.349h153.615m0-49.999H438.229c-34.587 0-62.627 27.466-62.627 61.349v5.473c0 10.655-8.819 19.289-19.697 19.289h-107.53c-43.724 0-79.17 34.723-79.17 77.553v588.783c0 42.832 35.446 77.553 79.17 77.553h533.323c43.724 0 79.17-34.722 79.17-77.553V256.18c0-42.83-35.446-77.553-79.17-77.553H674.167c-10.876 0-19.692-8.634-19.692-19.289v-5.473c0-33.882-28.04-61.348-62.63-61.348z" fill="#1A1A1A" p-id="13997"></path><path d="M342.121 428.303h345.832c28.651 0 51.875 23.224 51.875 51.877v276.665c0 28.649-23.224 51.875-51.875 51.875H342.121c-28.649 0-51.875-23.226-51.875-51.875V480.179c0-28.652 23.227-51.876 51.875-51.876z" fill="#F4F4F4" p-id="13998"></path></svg>