<?xml version="1.0" standalone="no"?><!DOCTYPE svg PUBLIC "-//W3C//DTD SVG 1.1//EN" "http://www.w3.org/Graphics/SVG/1.1/DTD/svg11.dtd"><svg t="1541474698137" class="icon" style="" viewBox="0 0 1024 1024" version="1.1" xmlns="http://www.w3.org/2000/svg" p-id="2991" xmlns:xlink="http://www.w3.org/1999/xlink" width="200" height="200"><defs><style type="text/css"></style></defs><path d="M924.672 245.248c-17.92 0-32.256-14.336-32.256-32.256 0-10.752-8.704-19.456-19.456-19.456h-721.92c-10.752 0-19.456 8.704-19.456 19.456 0 17.92-14.336 32.256-32.256 32.256s-32.256-14.336-32.256-32.256c0-46.08 37.376-83.456 83.456-83.456h722.432c46.08 0 83.456 37.376 83.456 83.456 0.512 17.92-13.824 32.256-31.744 32.256z m-51.712 654.336h-721.92c-46.08 0-83.456-37.376-83.456-83.456 0-17.92 14.336-32.256 32.256-32.256s32.256 14.336 32.256 32.256c0 10.752 8.704 19.456 19.456 19.456h722.432c10.752 0 19.456-8.704 19.456-19.456 0-17.92 14.336-32.256 32.256-32.256s32.256 14.336 32.256 32.256c-1.024 46.08-38.912 83.456-84.992 83.456zM179.2 648.704V614.4h50.688V412.672l-56.32 18.944-2.56-35.84L249.344 368.64h18.432v245.76h40.96v34.304H179.2z m229.888-154.624c-8.192-10.752-12.288-25.6-12.288-42.496 0-47.104 36.864-82.432 90.112-82.432 52.736 0 90.624 32.256 90.624 84.992 0 39.424-18.944 68.096-62.464 105.984-15.36 12.8-36.864 33.28-55.808 54.272h122.368v34.304H394.752v-18.432c28.16-31.744 67.072-70.144 97.28-97.792 32.768-29.696 46.592-52.224 46.592-77.312 0-30.72-20.48-50.176-52.224-50.176-31.744 0-50.688 19.968-50.688 44.544 0 10.752 3.072 20.992 10.24 31.744l-36.864 12.8z m291.328 84.992c14.848 26.112 33.792 40.448 58.88 40.448 32.256 0 54.784-20.992 54.784-51.712 0-30.208-17.408-46.08-46.592-46.08H747.52v-34.304h19.456c24.064 0 39.424-12.8 39.424-40.96 0-26.112-18.432-42.496-46.08-42.496-23.552 0-42.496 13.824-56.832 43.008l-31.232-18.944c17.92-37.888 48.128-59.392 87.552-59.392 51.2 0 84.992 28.672 84.992 74.752 0 28.16-13.312 47.616-37.376 60.928 27.648 10.752 44.544 31.744 44.544 63.488 0 52.736-38.4 86.528-94.72 86.528-41.984 0-70.656-19.968-89.6-52.224l32.768-23.04z" p-id="2992"></path></svg>