<?xml version="1.0" standalone="no"?><!DOCTYPE svg PUBLIC "-//W3C//DTD SVG 1.1//EN" "http://www.w3.org/Graphics/SVG/1.1/DTD/svg11.dtd"><svg t="1541638814174" class="icon" style="" viewBox="0 0 1024 1024" version="1.1" xmlns="http://www.w3.org/2000/svg" p-id="7797" xmlns:xlink="http://www.w3.org/1999/xlink" width="200" height="200"><defs><style type="text/css"></style></defs><path d="M510.89519378 31.40929551c-138.10077715 0-242.50496468 109.92821862-242.50496468 255.76263928v90.04170671h-7.73364352c-72.36480723 0-131.47193985 60.76434194-131.47193985 135.33876162v345.25194287c0 74.57441966 59.10713263 135.33876161 131.47193985 135.33876162h502.13442573c72.36480723 0 131.47193985-60.76434194 131.47193985-135.33876162V512c0-74.57441966-59.10713263-135.33876161-131.47193985-135.33876161h-4.41922487c-1.10480622-0.55240312-2.20961243-0.55240312-3.31441865-0.55240311V287.17193479C755.05736779 141.33751412 650.10077715 31.40929551 510.89519378 31.40929551z m0 40.32542692c118.21426525 0 204.38915019 90.59410982 204.38915019 215.43721236v88.38449737H308.71565603v-88.38449737c0-124.84310254 85.07007873-215.43721236 202.17953775-215.43721236zM854.48992734 512v345.25194289c0 52.47829532-40.87783004 95.01333468-91.69891603 95.01333468H260.65658558c-50.26868289 0-91.69891603-42.53503935-91.69891602-95.01333468V512c0-52.47829532 40.87783004-95.01333468 91.69891602-95.01333468h502.13442573c50.82108599 0 91.69891603 42.53503935 91.69891603 95.01333468z" fill="" p-id="7798"></path><path d="M702.57907247 551.22062071l-233.11411182 226.48527454-102.74697822-106.06139686c-11.60046528-11.60046528-29.82976787-12.15286839-41.98263626-0.55240311-11.60046528 11.60046528-12.15286839 29.82976787-0.55240309 41.98263626l123.18589321 127.05271498c11.60046528 11.60046528 29.82976787 12.15286839 41.98263625 0.5524031l254.65783307-246.92418955c11.60046528-11.60046528 12.15286839-29.82976787 0.55240312-41.98263624-11.60046528-11.60046528-30.38217097-11.60046528-41.98263626-0.55240312z" fill="" p-id="7799"></path></svg>