<?xml version="1.0" standalone="no"?><!DOCTYPE svg PUBLIC "-//W3C//DTD SVG 1.1//EN" "http://www.w3.org/Graphics/SVG/1.1/DTD/svg11.dtd"><svg t="1546670766956" class="icon" style="" viewBox="0 0 1024 1024" version="1.1" xmlns="http://www.w3.org/2000/svg" p-id="1251" xmlns:xlink="http://www.w3.org/1999/xlink" width="48" height="48"><defs><style type="text/css"></style></defs><path d="M512.008301 0C229.699852 0 0.008301 229.674951 0.008301 512c0 282.34165 229.691552 512 512 512 282.316749 0 511.983399-229.65835 511.983398-512C1023.983399 229.674951 794.316749 0 512.008301 0z m236.124442 433.112008L479.312614 701.948738c-5.851855 5.860156-16.219185 5.860156-22.079341 0l-180.345054-180.353355a15.515717 15.515717 0 0 1-4.548677-11.047971 15.700404 15.700404 0 0 1 4.548677-11.072873l23.0505-23.042199c2.930078-2.921777 6.847916-4.523775 11.056272-4.523775 4.183454 0 8.109593 1.601997 11.03137 4.523775l140.59394 140.59394a7.941507 7.941507 0 0 0 11.296986 0l229.077314-229.077315c5.860156-5.860156 16.244087-5.860156 22.087642 0l23.0505 23.083702a15.484591 15.484591 0 0 1 4.581879 11.014769 15.569671 15.569671 0 0 1-4.581879 11.064572z" p-id="1252"></path></svg>