<?xml version="1.0" standalone="no"?><!DOCTYPE svg PUBLIC "-//W3C//DTD SVG 1.1//EN" "http://www.w3.org/Graphics/SVG/1.1/DTD/svg11.dtd"><svg t="1535790305706" class="icon" style="" viewBox="0 0 1024 1024" version="1.1" xmlns="http://www.w3.org/2000/svg" p-id="11862" xmlns:xlink="http://www.w3.org/1999/xlink" width="200" height="200"><defs><style type="text/css"></style></defs><path d="M969.949867 402.107733v567.466667h-68.266667l-0.426667-565.504C892.091733 246.306133 721.1008 122.709333 512 122.709333S131.908267 246.306133 122.743467 404.0704l-0.426667 7.4752V969.557333h-68.266667l4.1984-601.6C88.507733 189.7472 280.507733 54.442667 512 54.442667c231.4752 0 423.4752 135.3216 453.751467 313.514666" fill="" p-id="11863"></path><path d="M834.542933 969.5744h-51.2l-0.3072-407.074133C776.738133 453.819733 657.664 352.443733 512 352.443733c-145.681067 0-264.738133 101.358933-271.0528 210.056534l-0.3072 5.1712v401.902933h-51.2l4.6592-443.1872C220.910933 397.346133 343.9104 300.407467 512 300.407467c168.0896 0 292.608 96.6144 319.419733 225.655466" fill="" p-id="11864"></path><path d="M545.536 969.5744h-71.202133l12.270933-178.397867c-20.804267-3.908267-78.165333-18.6368-93.405867-52.036266-7.799467-17.152-6.4-36.3008 7.5264-57.2928 5.7344-7.8336 16.981333-12.168533 28.859734-12.168534 23.7056 0 57.173333 17.117867 74.7008 54.289067 8.704-34.184533 28.4672-79.445333 72.0896-79.445333 8.482133 0 17.5104 1.792 26.845866 5.358933 11.434667 4.932267 32.904533 27.426133 32.290134 57.685333-0.512 24.866133-26.487467 61.422933-98.781867 90.811734l8.8064 171.195733z" fill="" p-id="11865"></path></svg>