<?xml version="1.0" standalone="no"?><!DOCTYPE svg PUBLIC "-//W3C//DTD SVG 1.1//EN" "http://www.w3.org/Graphics/SVG/1.1/DTD/svg11.dtd"><svg t="1539665795565" class="icon" style="" viewBox="0 0 1024 1024" version="1.1" xmlns="http://www.w3.org/2000/svg" p-id="7799" xmlns:xlink="http://www.w3.org/1999/xlink" width="200" height="200"><defs><style type="text/css"></style></defs><path d="M507.395122 66.116837c-254.731612 0-461.231733 206.501144-461.231733 461.231733s206.501144 461.231733 461.231733 461.231733c254.731612 0 461.232756-206.500121 461.232756-461.231733S762.126734 66.116837 507.395122 66.116837z m0 860.301707c-220.399689 0-399.068951-178.669262-399.068951-399.069974s178.669262-399.068951 399.068951-399.068952c220.399689 0 399.069975 178.669262 399.069975 399.068952S727.794811 926.418544 507.395122 926.418544z" p-id="7800" fill="#e6e6e6"></path><path d="M507.395122 177.438225c-191.550641 0-347.122859 153.922648-349.845876 344.824513h58.796104c2.716878-158.429289 131.97273-286.028409 291.049772-286.028409 159.078065 0 288.333918 127.59912 291.050796 286.028409h58.796104c-2.724041-190.901865-158.297282-344.824513-349.8469-344.824513z" p-id="7801" fill="#e6e6e6"></path><path d="M507.395122 318.54908S408.395364 640.874159 408.395364 744.478795c0 54.676273 44.323485 98.999758 98.999758 98.999759 54.676273 0 98.999758-44.323485 98.999758-98.999759 0-9.833973-1.440815-19.330254-4.110621-28.296463-9.622148-61.802578-37.285185-217.811748-94.889137-397.633252z" p-id="7802" fill="#e6e6e6"></path></svg>