<?xml version="1.0" standalone="no"?><!DOCTYPE svg PUBLIC "-//W3C//DTD SVG 1.1//EN" "http://www.w3.org/Graphics/SVG/1.1/DTD/svg11.dtd"><svg t="1552460684961" class="icon" style="" viewBox="0 0 1024 1024" version="1.1" xmlns="http://www.w3.org/2000/svg" p-id="8103" xmlns:xlink="http://www.w3.org/1999/xlink" width="128" height="128"><defs><style type="text/css"></style></defs><path d="M512 560a44.8 44.8 0 1 0-44.8-44.8 44.8 44.8 0 0 0 44.8 44.8z m0-64a21.12 21.12 0 1 1-21.12 21.12 21.12 21.12 0 0 1 21.12-23.04zM512 433.28a44.8 44.8 0 1 0-44.8-44.8 44.8 44.8 0 0 0 44.8 44.8z m0-64a21.12 21.12 0 1 1-21.12 21.12 21.12 21.12 0 0 1 21.12-23.04z" p-id="8104"></path><path d="M778.88 88.96H245.12a58.24 58.24 0 0 0-57.6 57.6v734.08a58.24 58.24 0 0 0 57.6 57.6h533.12a58.24 58.24 0 0 0 57.6-57.6V146.56a58.24 58.24 0 0 0-56.96-57.6z m-115.2 23.04L519.68 256a8.32 8.32 0 0 1-12.16 0L364.16 112z m-453.12 34.56a34.56 34.56 0 0 1 34.56-34.56h86.4l160 160a31.36 31.36 0 0 0 44.8 0l160-160h82.56a34.56 34.56 0 0 1 34.56 34.56v734.08a34.56 34.56 0 0 1-5.76 18.56L542.08 634.24a44.8 44.8 0 0 0-64 0L215.04 896a34.56 34.56 0 0 1-4.48-16.64zM376.96 768h267.52l57.6 57.6H320z m23.04-23.04l94.72-94.72a21.76 21.76 0 0 1 30.72 0l95.36 95.36z m-154.88 170.88a34.56 34.56 0 0 1-12.8 0l64-64h429.44l64 64h-10.88z" p-id="8105"></path></svg>