<?xml version="1.0" standalone="no"?><!DOCTYPE svg PUBLIC "-//W3C//DTD SVG 1.1//EN" "http://www.w3.org/Graphics/SVG/1.1/DTD/svg11.dtd"><svg t="1535764330204" class="icon" style="" viewBox="0 0 1029 1024" version="1.1" xmlns="http://www.w3.org/2000/svg" p-id="8155" xmlns:xlink="http://www.w3.org/1999/xlink" width="200.9765625" height="200"><defs><style type="text/css"></style></defs><path d="M970.83428563 533.18q20.16 19.2 21.11999999 42.23999999t-15.36 38.40000001q-18.24 16.32-42.24 15.35999999t-38.4-13.44q-4.8-3.84-29.28-26.88t-58.56-55.2-72.96-69.12-73.44-69.59999999-59.52-56.64000001-31.68-29.75999999q-30.72-27.84-60.48-26.88000001t-58.56 26.88000001q-9.6 8.64-36 33.12t-60.96 57.11999999-72.96 68.16000001-71.04 66.24-56.15999999 52.31999999-28.32 25.44000001q-14.4 11.52-38.4 12.47999999t-41.28-14.4q-19.2-17.28-18.24-41.76t16.32-38.88q5.76-5.76 35.52-33.6t71.03999999-66.24 88.8-82.55999999 88.32-82.56000001 70.08-65.75999999 34.08-32.16000001q36.48-35.52 78.72-36t72 28.32q5.76 4.8 24 22.56000001t44.64 43.2 59.04 57.11999999 66.24 63.84000001 65.76000001 63.83999999 59.04 57.12000001 45.12 43.67999999zM451.47428563 393.97999999q24-22.08 57.59999999-23.51999999t60.48000001 23.51999999q2.88 2.88 17.28 16.32l36.48 33.60000001q21.12 20.16 47.52 45.11999999t54.24 49.92000001q64.32 59.52 143.99999999 133.43999999l1e-8 182.4q0 21.12-15.84 37.44t-42.72 17.28l-181.44000001 0 1e-8-148.79999999q0-31.68-29.76-31.68l-183.36000001 0q-16.32 0-22.56 9.59999999t-6.24 22.08000001q0 5.76-0.48 29.27999999t-0.48 50.4l0 69.12-175.68 0q-27.84 0-44.16-12.48t-16.32-35.51999999l0-191.04000001q78.72-72 143.04-130.56 26.88-24.96 53.76-49.44t48.96-44.64 36.96-34.08 18.72-17.76z"  p-id="8156"></path></svg>