<?xml version="1.0" standalone="no"?><!DOCTYPE svg PUBLIC "-//W3C//DTD SVG 1.1//EN" "http://www.w3.org/Graphics/SVG/1.1/DTD/svg11.dtd"><svg t="1535763138224" class="icon" style="" viewBox="0 0 1157 1024" version="1.1" xmlns="http://www.w3.org/2000/svg" p-id="3728" xmlns:xlink="http://www.w3.org/1999/xlink" width="225.9765625" height="200"><defs><style type="text/css"></style></defs><path d="M574.268298 0.002735c22.036673-0.224063 29.111156 13.374981 40.94556 23.316222q41.508561 35.53904 83.028496 71.086041 168.311841 143.86393 336.66349 287.756294l101.795211 87.009314c9.644954 8.537718 20.518275 11.45907 20.47278 30.140482v8.530325c-7.222342 14.911008-25.949248 13.64852-48.338508 13.648519q-56.291614 0.281501-112.600289 0.568689v451.538532c0 15.292029 1.427408 32.227568-5.118195 40.94556-8.769174 11.680858-30.754665 9.099013-51.18195 9.099013h-716.547293c-17.717485 0-40.206265 2.37143-50.613262-5.118195-14.679552-10.566229-8.530325-95.755741-8.530325-123.974055V553.905167c0-9.525529 2.161016-25.084842-1.137376-32.415235q-71.931681-0.281501-143.878147-0.568688c-8.633826-2.564784-14.735283-9.923611-18.198027-17.629338-6.432434-14.313885 19.122714-31.789678 25.022287-36.396053l105.20734-89.852756 71.086041-61.987028 278.657281-237.143033c31.103271-26.124404 60.550521-53.101841 93.264886-77.910301z m5.118195 54.59408l-489.071962 418.55461 1.137376 1.706065c24.741354-1.693554 102.21604-5.387185 113.168978 6.824259 12.982017 14.473118 6.82426 89.60822 6.82426 118.287173v346.89988c0 9.064892-1.805017 24.897175 1.137376 30.140481h120.561926c13.105991 0 38.253958 3.747656 47.76982-1.706065v-284.912852c-0.003412-50.340291-5.100566-110.871476 6.255571-151.839784 14.403169-51.961053 45.897129-88.79727 86.440626-114.875042 35.306446-22.708862 99.725185-42.320079 156.957979-25.022286 73.366481 22.174864 118.344041 68.054364 142.172082 139.897328 8.939781 26.961514 6.255572 65.751745 6.255571 100.657834v180.2742q0.281501 78.470459 0.568689 156.957979h167.763057c0.568688-0.381021 1.137377-0.756355 1.706065-1.137377q-0.281501-182.531893-0.568689-365.097906c0-28.548154-4.993084-115.472165 6.82426-128.523563 16.338416-18.045049 86.070978-0.807537 114.306354-7.392948v-2.274753c-12.113061-4.625711-24.220436-19.911484-33.552611-28.434417l-66.536535-56.868832q-139.317267-118.559574-278.657281-237.143033-37.53343-32.128047-75.066859-64.261781c-11.20316-8.923289-22.667917-25.392503-36.396053-30.70917z m-49.475884 86.440626c47.434293 0.71086 16.963973 65.038609-15.354585 55.162768-6.179367-1.888045-10.668593-6.119086-13.64852-11.373767-13.257831-23.378777 13.263518-37.357705 29.003105-43.789001z m-67.105223 56.868833c11.464188 0.934924 17.22102 4.589883 21.610156 12.511143 12.374658 22.332391-15.980142 37.825735-26.728351 47.201131l-178.568135 150.133719c-13.62236 10.615705-55.607482 58.898481-76.772925 32.983923-20.896453-25.585857 33.583321-58.011328 47.201132-69.379976l137.622575-115.443731c24.147075-20.080385 44.860979-44.865528 75.635548-58.006209z m105.776029 241.123851l-17.06065 2.274753-24.453598 6.82426c-34.68032 13.668993-63.89384 37.374197-80.753743 68.811288-21.928622 40.888691-18.198027 98.752728-18.198026 162.076173v295.149243c0.568688 0.187667 1.137377 0.381021 1.706065 0.568688q115.716701 0.281501 231.456149 0.568688c12.846669 0 66.422797 2.678522 71.086041-2.843441q-0.281501-59.422243-0.568688-118.855861v-193.92272c0-34.434078 3.468999-75.476315-3.41213-104.638652-16.207617-68.691863-73.690634-116.101703-159.80142-116.012419z m76.772924 217.80763c86.076665-1.507024 90.688728 112.753835 13.64852 125.68012-47.405859 7.95595-84.711813-41.610925-68.242599-85.303249 5.846116-15.502444 19.938213-29.804955 35.258676-35.827365q9.664858-2.274753 19.335403-4.549506z m2.843442 46.632443c-21.684086 9.627893-14.018167 36.737266 3.980818 32.983923 19.420706-4.049061 19.676616-33.626541-3.980818-32.983923z" p-id="3729"></path></svg>