<?xml version="1.0" standalone="no"?><!DOCTYPE svg PUBLIC "-//W3C//DTD SVG 1.1//EN" "http://www.w3.org/Graphics/SVG/1.1/DTD/svg11.dtd"><svg t="1557904858077" class="icon" style="" viewBox="0 0 1024 1024" version="1.1" xmlns="http://www.w3.org/2000/svg" p-id="21079" xmlns:xlink="http://www.w3.org/1999/xlink" width="128" height="128"><defs><style type="text/css"></style></defs><path transform="matrix(0,-1,1,0,227.9,660.7)" d="M -155.6 506.6 v 115.8 c 0 12.2 4.5 18.3 13.6 18.3 h 312 c 9 0 13.6 -6.1 13.6 -18.3 v -109.7 c 0 -18.3 13.6 -36.6 27.1 -36.6 s 27.1 18.3 27.1 36.6 v 109.7 c 0 48.8 -27.1 85.3 -63.3 85.3 h -316.6 c -36.2 0 -63.3 -36.6 -63.3 -85.3 v -627.7 c 0 -48.8 27.1 -85.3 63.3 -85.3 h 312 c 36.2 0 63.3 36.6 63.3 85.3 v 109.7 c 0 18.3 -13.6 36.6 -27.1 36.6 s -22.6 -12.2 -22.6 -30.5 v -115.8 c 0 -12.2 -4.5 -18.3 -13.6 -18.3 h -312 c -9 0 -13.6 6.1 -13.6 18.3 v 512 z" p-id="21080"></path><path transform="matrix(0,1,-1,0,1196.8,-168.6)" d="M 706.5 750.9 c -12.4 12.8 -12.4 38.4 0 51.2 c 6.2 6.4 18.6 12.8 24.8 12.8 s 18.6 -6.4 24.8 -12.8 l 130.2 -134.4 c 12.4 -12.8 12.4 -38.4 0 -51.2 l -130.2 -134.4 c -12.4 -12.8 -37.2 -12.8 -49.6 0 s -12.4 38.4 0 51.2 l 74.4 76.8 h -341 c -18.6 -6.4 -37.2 12.8 -37.2 32 s 18.6 38.4 37.2 38.4 h 341 l -74.4 70.4 z" p-id="21081"></path></svg>