<?xml version="1.0" standalone="no"?><!DOCTYPE svg PUBLIC "-//W3C//DTD SVG 1.1//EN" "http://www.w3.org/Graphics/SVG/1.1/DTD/svg11.dtd"><svg t="1542787909424" class="icon" style="" viewBox="0 0 1024 1024" version="1.1" xmlns="http://www.w3.org/2000/svg" p-id="7371" xmlns:xlink="http://www.w3.org/1999/xlink" width="200" height="200"><defs><style type="text/css"></style></defs><path d="M935.222559 334.424652c-23.537066-55.642275-57.228399-105.613386-100.136651-148.523685C792.173562 142.989645 742.204497 109.299335 686.560176 85.764316c-57.608046-24.366967-118.803803-36.722366-181.880397-36.722366-63.078641 0-124.272351 12.355399-181.883467 36.722366C267.154038 109.299335 217.182926 142.989645 174.272627 185.900967c-42.911322 42.911322-76.601632 92.88141-100.136651 148.523685-24.366967 57.610092-36.722366 118.804826-36.722366 181.883467 0 63.077617 12.355399 124.272351 36.722366 181.880397 23.535019 55.642275 57.225329 105.613386 100.136651 148.526755 42.911322 42.908252 92.88141 76.598562 148.523685 100.135628 57.610092 24.364921 118.804826 36.722366 181.883467 36.722366 63.077617 0 124.272351-12.357446 181.880397-36.722366 55.644321-23.537066 105.613386-57.228399 148.525732-100.135628 42.909276-42.913369 76.599585-92.88448 100.136651-148.526755 24.366967-57.608046 36.722366-118.803803 36.722366-181.880397C971.944925 453.229478 959.588503 392.035768 935.222559 334.424652zM504.679779 957.353091c-243.193835 0-441.044972-197.85216-441.044972-441.044972 0-243.193835 197.85216-441.044972 441.044972-441.044972 243.192811 0 441.044972 197.85216 441.044972 441.044972C945.724751 759.50093 747.87259 957.353091 504.679779 957.353091z" p-id="7372"></path><path d="M846.235852 478.938c-0.258896-3.471055-1.051959-6.353708-1.971911-8.698103-5.207605-46.064129-20.583804-90.159416-45.735647-131.11213-23.928992-38.966477-56.488549-73.834612-94.304829-101.028974-3.260254-3.910053-6.935969-6.253424-10.211573-7.65433-0.887206-0.458441-2.450818-1.461281-3.733021-2.282996-2.331092-1.494027-5.232165-3.354398-8.55791-5.013177-12.642948-6.305613-28.005844-1.165546-34.30941 11.477402-6.305613 12.642948-1.168616 28.005844 11.476379 34.311457 0.861624 0.429789 2.344395 1.38044 3.778046 2.298346 1.425466 0.915859 3.025916 1.941212 4.802376 2.977821 1.847068 1.942235 3.790326 3.432169 5.691629 4.574179 68.473511 48.706305 112.349811 121.29146 120.502491 199.419865 0.25685 3.397377 1.027399 6.231935 1.924839 8.546653 4.199649 45.635363-1.826602 89.812515-18.391882 134.830825-1.327228 1.805112-2.817162 4.246721-3.922333 7.30743C749.013577 691.077561 703.78242 741.705636 645.765051 771.46338c-0.109494 0.056282-0.216941 0.118704-0.326435 0.179079-0.112564 0.060375-0.230244 0.115634-0.342808 0.178055-140.817166 77.661777-318.562383 26.282596-396.22416-114.53457-77.661777-140.816143-26.281573-318.561359 114.53457-396.223137 12.371772-6.823406 16.870226-22.384823 10.047844-34.756595-6.824429-12.371772-22.384823-16.870226-34.757618-10.045797-40.514739 22.343891-75.450413 51.966559-103.835903 88.044242-27.409257 34.83539-47.574528 74.179466-59.935044 116.940362-12.360516 42.761919-16.298198 86.796832-11.70253 130.883933 4.759397 45.657876 18.501376 89.352027 40.84629 129.866766 22.342868 40.513716 51.966559 75.448366 88.043219 103.83488 34.836413 27.409257 74.181513 47.574528 116.941386 59.934021 42.760896 12.360516 86.797855 16.301268 130.884956 11.703553 45.463448-4.737908 88.974427-18.390859 129.34488-40.564881 2.711761-1.393743 5.399987-2.826372 8.067746-4.295839 64.304562-35.465746 114.604154-92.715635 142.489248-162.343435 1.387603-1.856277 2.979868-4.423753 4.128017-7.677866C844.263941 588.855412 851.753519 533.800515 846.235852 478.938z" p-id="7373"></path><path d="M507.223718 509.782495c14.128789 0 25.582655-11.453866 25.582655-25.582655l0-362.250394c0-14.128789-11.453866-25.582655-25.582655-25.582655-14.128789 0-25.582655 11.453866-25.582655 25.582655l0 362.250394C481.641063 498.328629 493.09493 509.782495 507.223718 509.782495z" p-id="7374"></path></svg>