<?xml version="1.0" standalone="no"?><!DOCTYPE svg PUBLIC "-//W3C//DTD SVG 1.1//EN" "http://www.w3.org/Graphics/SVG/1.1/DTD/svg11.dtd"><svg t="1539662172199" class="icon" style="" viewBox="0 0 1024 1024" version="1.1" xmlns="http://www.w3.org/2000/svg" p-id="3036" xmlns:xlink="http://www.w3.org/1999/xlink" width="200" height="200"><defs><style type="text/css"></style></defs><path d="M814.772457 30.622773c0.576729 0 0.826815 0.280709 0.903372 0.387888V956.665627c0 18.603334-4.440302 31.245436-7.456645 36.7116H191.859327c-3.016343-5.466165-7.456645-18.11337-7.456646-36.7116V30.954519a1.240222 1.240222 0 0 1 0.903372-0.326643h629.466404m0-30.627876H185.306053c-17.342697 0-31.526144 13.795559-31.526144 30.724849v925.940778c0 36.992309 14.183448 67.334373 31.526144 67.334373h629.466404c17.342697 0 31.526144-30.342064 31.526145-67.334373V30.724849c-0.122491-16.92929-14.178344-30.724849-31.526145-30.724849z" fill="" p-id="3037"></path><path d="M527.311386 626.353089c0 10.957849-13.050405 19.966048-28.933416 19.966048s-28.933416-9.008199-28.933416-19.966048v-58.933526c0-10.957849 13.050405-19.966048 28.933416-19.966048s28.933416 9.008199 28.933416 19.966048v58.933526zM753.435044 489.877599H232.153792c-16.179032 0-29.34172-13.713898-29.34172-30.571735v-53.487776h579.969796v53.487776c0 16.857836-13.162688 30.571735-29.346824 30.571735zM218.123458 421.129474v38.17639c0 8.411055 6.29298 15.260348 14.030334 15.260348h521.281252c7.742458 0 14.035437-6.84419 14.035437-15.260348v-38.17639H218.123458zM782.781868 398.096045H202.812072v-61.143469h579.969796v61.143469z m-564.65841-15.311386h549.347023v-30.520697H218.123458v30.520697zM782.781868 329.225429H202.812072V267.964572h579.969796v61.260857z m-564.65841-15.311386h549.347023v-30.638084H218.123458v30.638084zM782.66448 260.359917H202.812072v-53.487776c0-16.857836 13.162688-30.571735 29.34172-30.571735h521.168968c16.179032 0 29.34172 13.713898 29.34172 30.571735v53.487776z m-564.541022-15.311386h549.229636v-38.171286c0-8.416159-6.29298-15.260348-14.030334-15.260349H232.153792c-7.737354 0-14.030334 6.84419-14.030334 15.260349v38.171286z" fill="" p-id="3038"></path></svg>