<?xml version="1.0" standalone="no"?><!DOCTYPE svg PUBLIC "-//W3C//DTD SVG 1.1//EN" "http://www.w3.org/Graphics/SVG/1.1/DTD/svg11.dtd"><svg t="1536207105679" class="icon" style="" viewBox="0 0 1024 1024" version="1.1" xmlns="http://www.w3.org/2000/svg" p-id="9697" xmlns:xlink="http://www.w3.org/1999/xlink" width="200" height="200"><defs><style type="text/css"></style></defs><path d="M480 851.2v-192c0-12.8 12.8-25.6 25.6-25.6 19.2 0 25.6 12.8 25.6 25.6v192c0 12.8-12.8 25.6-25.6 25.6s-25.6-6.4-25.6-25.6zM364.8 512v460.8h288V512L768 339.2H249.6L364.8 512z m441.6-230.4c19.2 0 38.4 19.2 38.4 38.4l-134.4 204.8v441.6c0 32-25.6 57.6-57.6 57.6H364.8c-32 0-57.6-25.6-57.6-57.6V524.8L172.8 320c0-19.2 19.2-38.4 38.4-38.4h595.2z m-620.8-38.4c-19.2 0-25.6-12.8-25.6-25.6s12.8-25.6 25.6-25.6h652.8c19.2 0 25.6 12.8 25.6 25.6 0 19.2-19.2 25.6-32 25.6H185.6zM537.6 25.6v76.8c0 19.2-12.8 25.6-25.6 25.6-19.2 0-25.6-12.8-25.6-25.6V25.6C480 12.8 492.8 0 512 0c12.8 0 25.6 12.8 25.6 25.6zM288 128L230.4 44.8c-6.4-19.2 0-32 12.8-38.4 12.8-6.4 32 6.4 32 19.2l57.6 83.2c6.4 19.2 0 32-12.8 38.4-12.8 0-32-6.4-32-19.2M774.4 44.8L716.8 128c-6.4 19.2-25.6 19.2-38.4 12.8-19.2-6.4-19.2-25.6-12.8-38.4l57.6-83.2c12.8-19.2 25.6-19.2 38.4-12.8 12.8 12.8 19.2 25.6 12.8 38.4" p-id="9698"></path></svg>