<?xml version="1.0" standalone="no"?><!DOCTYPE svg PUBLIC "-//W3C//DTD SVG 1.1//EN" "http://www.w3.org/Graphics/SVG/1.1/DTD/svg11.dtd"><svg t="1536115481522" class="icon" style="" viewBox="0 0 1024 1024" version="1.1" xmlns="http://www.w3.org/2000/svg" p-id="6509" xmlns:xlink="http://www.w3.org/1999/xlink" width="200" height="200"><defs><style type="text/css"></style></defs><path d="M700.622357 77.870722C681.587292-25.956907 338.956113-25.956907 318.190587 77.870722A21.630756 21.630756 0 0 0 318.190587 86.523025v193.811576a182.996198 182.996198 0 0 0 86.523025 124.160541v559.803971c0 35.041825 43.261512 59.700887 106.855936 59.700887s108.153781-24.659062 108.153781-59.700887V404.495142a182.996198 182.996198 0 0 0 86.523025-124.160541V86.523025a21.630756 21.630756 0 0 0-5.623997-8.652303zM510.271703 43.261512c98.203633 0 148.819603 31.580904 148.819602 43.261513S608.475336 129.784537 510.271703 129.784537 361.4521 99.934094 361.4521 86.523025s50.61597-43.261512 148.819603-43.261513z m65.324883 921.470216a89.118716 89.118716 0 0 1-64.892268 17.73722A92.147022 92.147022 0 0 1 447.975125 964.299113V427.856358a168.719899 168.719899 0 0 0 63.594423 13.843684 168.719899 168.719899 0 0 0 63.594423-13.843684zM510.271703 398.43853A173.04605 173.04605 0 0 1 361.4521 280.334601V143.628221A327.922264 327.922264 0 0 0 510.271703 173.04605a327.922264 327.922264 0 0 0 148.819602-31.148289v138.43684a173.04605 173.04605 0 0 1-148.819602 118.103929z" fill="#231F20" p-id="6510"></path><path d="M488.640946 533.847064v43.261512a21.630756 21.630756 0 1 0 43.261513 0v-43.261512a21.630756 21.630756 0 0 0-43.261513 0z" fill="#231F20" p-id="6511"></path></svg>