<?xml version="1.0" standalone="no"?><!DOCTYPE svg PUBLIC "-//W3C//DTD SVG 1.1//EN" "http://www.w3.org/Graphics/SVG/1.1/DTD/svg11.dtd"><svg t="1536115348059" class="icon" style="" viewBox="0 0 1024 1024" version="1.1" xmlns="http://www.w3.org/2000/svg" p-id="3288" xmlns:xlink="http://www.w3.org/1999/xlink" width="200" height="200"><defs><style type="text/css"></style></defs><path d="M710.4 192H313.6c-12.8 0-19.2 12.8-19.2 25.6v70.4c0 89.6 44.8 160 108.8 204.8v505.6c0 12.8 12.8 25.6 25.6 25.6h172.8c12.8 0 25.6-12.8 25.6-25.6V492.8c70.4-38.4 108.8-115.2 108.8-204.8V217.6c-6.4-12.8-12.8-25.6-25.6-25.6z m-371.2 51.2h339.2v25.6H339.2v-25.6z m230.4 729.6H448v-38.4h121.6v38.4z m0-83.2H448V512c19.2 6.4 38.4 6.4 64 6.4 19.2 0 38.4 0 57.6-6.4v377.6zM512 473.6c-89.6 0-160-64-172.8-160h339.2C672 409.6 601.6 473.6 512 473.6z m0 0" p-id="3289"></path><path d="M486.4 665.6v76.8c0 12.8 12.8 25.6 25.6 25.6s25.6-12.8 25.6-25.6v-76.8c0-12.8-12.8-25.6-25.6-25.6-12.8 6.4-25.6 12.8-25.6 25.6z m0 0M537.6 121.6c0 12.8-12.8 25.6-25.6 25.6s-25.6-12.8-25.6-25.6V25.6c0-12.8 12.8-25.6 25.6-25.6s25.6 12.8 25.6 25.6v96zM595.2 108.8c-6.4 19.2 0 32 12.8 38.4 12.8 6.4 25.6 0 32-12.8l38.4-89.6c6.4-12.8 0-25.6-12.8-32-12.8-6.4-25.6 0-32 12.8l-38.4 83.2zM428.8 108.8c6.4 12.8 0 25.6-12.8 32-12.8 12.8-25.6 6.4-32-6.4L339.2 38.4c-6.4-12.8 0-25.6 12.8-32 12.8-6.4 25.6 0 32 12.8l44.8 89.6z" p-id="3290"></path></svg>