<?xml version="1.0" standalone="no"?><!DOCTYPE svg PUBLIC "-//W3C//DTD SVG 1.1//EN" "http://www.w3.org/Graphics/SVG/1.1/DTD/svg11.dtd"><svg t="1536207094641" class="icon" style="" viewBox="0 0 1024 1024" version="1.1" xmlns="http://www.w3.org/2000/svg" p-id="9566" xmlns:xlink="http://www.w3.org/1999/xlink" width="200" height="200"><defs><style type="text/css"></style></defs><path d="M849.066667 132.266667 174.933333 132.266667c-17.066667 0-29.866667-12.8-29.866667-29.866667s12.8-29.866667 29.866667-29.866667l678.4 0c17.066667 0 29.866667 12.8 29.866667 29.866667S866.133333 132.266667 849.066667 132.266667zM204.8 174.933333l618.666667 0c21.333333 0 38.4 17.066667 38.4 38.4l-140.8 217.6c0 4.266667 0 4.266667 0 8.533333 0 4.266667 0 8.533333 0 12.8l0 469.333333c0 34.133333-25.6 59.733333-59.733333 59.733333l-298.666667 0c-34.133333 0-59.733333-25.6-59.733333-59.733333l0-469.333333c0-4.266667 0-8.533333 0-12.8 0-4.266667 0-4.266667 0-8.533333L162.133333 213.333333C162.133333 192 183.466667 174.933333 204.8 174.933333zM362.666667 413.866667l0 507.733333 298.666667 0L661.333333 413.866667l119.466667-179.2L243.2 234.666667 362.666667 413.866667zM512 652.8c-17.066667 0-29.866667-12.8-29.866667-29.866667l0-98.133333c0-17.066667 12.8-29.866667 29.866667-29.866667 17.066667 0 29.866667 12.8 29.866667 29.866667l0 98.133333C541.866667 640 529.066667 652.8 512 652.8z" p-id="9567"></path></svg>