<?xml version="1.0" standalone="no"?><!DOCTYPE svg PUBLIC "-//W3C//DTD SVG 1.1//EN" "http://www.w3.org/Graphics/SVG/1.1/DTD/svg11.dtd"><svg t="1564640760238" class="icon" viewBox="0 0 1024 1024" version="1.1" xmlns="http://www.w3.org/2000/svg" p-id="1897" xmlns:xlink="http://www.w3.org/1999/xlink" width="128" height="128"><defs><style type="text/css"></style></defs><path d="M587.093333 477.866667c13.653333-75.093333 81.92-136.533333 163.84-136.533334s150.186667 61.44 163.84 136.533334h27.306667c27.306667 0 47.786667 20.48 47.786667 40.96s-20.48 40.96-40.96 40.96h-34.133334c-20.48 68.266667-88.746667 122.88-163.84 122.88s-143.36-47.786667-163.84-122.88H75.093333C54.613333 559.786667 34.133333 546.133333 34.133333 518.826667c0-20.48 20.48-40.96 40.96-40.96h512z m-477.866666 341.333333c13.653333-75.093333 81.92-136.533333 163.84-136.533333s150.186667 61.44 163.84 136.533333h505.173333c20.48 0 40.96 20.48 40.96 40.96s-20.48 40.96-40.96 40.96H436.906667c-20.48 68.266667-88.746667 122.88-163.84 122.88s-143.36-47.786667-163.84-122.88H75.093333c-20.48 0-40.96-13.653333-40.96-40.96s20.48-40.96 40.96-40.96h34.133334z m0-682.666667C122.88 61.44 191.146667 0 273.066667 0s150.186667 61.44 163.84 136.533333h505.173333c27.306667 0 47.786667 20.48 47.786667 40.96s-20.48 40.96-40.96 40.96H436.906667C416.426667 293.546667 348.16 341.333333 273.066667 341.333333s-143.36-47.786667-163.84-122.88H75.093333C54.613333 218.453333 34.133333 204.8 34.133333 177.493333S54.613333 136.533333 75.093333 136.533333h34.133334z m163.84 122.88c47.786667 0 88.746667-40.96 88.746666-88.746666s-40.96-88.746667-88.746666-88.746667-88.746667 40.96-88.746667 88.746667 40.96 88.746667 88.746667 88.746666z m0 682.666667c47.786667 0 88.746667-40.96 88.746666-88.746667s-40.96-88.746667-88.746666-88.746666-88.746667 40.96-88.746667 88.746666 40.96 88.746667 88.746667 88.746667z m477.866666-341.333333c47.786667 0 88.746667-40.96 88.746667-88.746667s-40.96-88.746667-88.746667-88.746667-88.746667 40.96-88.746666 88.746667 40.96 88.746667 88.746666 88.746667z"  p-id="1898"></path></svg>