<?xml version="1.0" standalone="no"?><!DOCTYPE svg PUBLIC "-//W3C//DTD SVG 1.1//EN" "http://www.w3.org/Graphics/SVG/1.1/DTD/svg11.dtd"><svg t="1564622228582" class="icon" viewBox="0 0 1024 1024" version="1.1" xmlns="http://www.w3.org/2000/svg" p-id="1306" xmlns:xlink="http://www.w3.org/1999/xlink" width="128" height="128"><defs><style type="text/css"></style></defs><path d="M947.2 0h-870.4c-14.336 0-25.6 11.264-25.6 25.6v972.8c0 14.336 11.264 25.6 25.6 25.6h870.4c14.336 0 25.6-11.264 25.6-25.6V25.6c0-14.336-11.264-25.6-25.6-25.6zM102.4 972.8v-115.2h15.36c7.168 0 12.8-5.632 12.8-12.8s-5.632-12.8-12.8-12.8H102.4V51.2h819.2v780.8h-25.6c-7.168 0-12.8 5.632-12.8 12.8s5.632 12.8 12.8 12.8h25.6V972.8H102.4z"  p-id="1307"></path><path d="M445.44 832h-40.96c-7.168 0-12.8 5.632-12.8 12.8s5.632 12.8 12.8 12.8h40.96c7.168 0 12.8-5.632 12.8-12.8s-5.632-12.8-12.8-12.8zM199.68 832h-40.96c-7.168 0-12.8 5.632-12.8 12.8s5.632 12.8 12.8 12.8h40.96c7.168 0 12.8-5.632 12.8-12.8s-5.632-12.8-12.8-12.8zM281.6 832h-40.96c-7.168 0-12.8 5.632-12.8 12.8s5.632 12.8 12.8 12.8h40.96c7.168 0 12.8-5.632 12.8-12.8s-5.632-12.8-12.8-12.8zM527.36 832h-40.96c-7.168 0-12.8 5.632-12.8 12.8s5.632 12.8 12.8 12.8h40.96c7.168 0 12.8-5.632 12.8-12.8s-5.632-12.8-12.8-12.8zM363.52 832h-40.96c-7.168 0-12.8 5.632-12.8 12.8s5.632 12.8 12.8 12.8h40.96c7.168 0 12.8-5.632 12.8-12.8s-5.632-12.8-12.8-12.8zM773.12 832h-40.96c-7.168 0-12.8 5.632-12.8 12.8s5.632 12.8 12.8 12.8h40.96c7.168 0 12.8-5.632 12.8-12.8s-5.632-12.8-12.8-12.8zM855.04 832h-40.96c-7.168 0-12.8 5.632-12.8 12.8s5.632 12.8 12.8 12.8h40.96c7.168 0 12.8-5.632 12.8-12.8s-5.632-12.8-12.8-12.8zM609.28 832h-40.96c-7.168 0-12.8 5.632-12.8 12.8s5.632 12.8 12.8 12.8h40.96c7.168 0 12.8-5.632 12.8-12.8s-5.632-12.8-12.8-12.8zM691.2 832h-40.96c-7.168 0-12.8 5.632-12.8 12.8s5.632 12.8 12.8 12.8h40.96c7.168 0 12.8-5.632 12.8-12.8s-5.632-12.8-12.8-12.8z"  p-id="1308"></path><path d="M512 781.824a24.064 24.064 0 0 1-17.92-7.68l-181.248-181.248a26.112 26.112 0 0 1-5.632-27.648c4.096-9.728 13.312-15.872 23.552-15.872H384v-384c0-14.336 11.264-25.6 25.6-25.6h204.8c14.336 0 25.6 11.264 25.6 25.6v384h53.248a25.5488 25.5488 0 0 1 17.92 43.52l-181.248 181.248a24.064 24.064 0 0 1-17.92 7.68z m-119.296-181.248L512 719.872l119.296-119.296H614.4c-14.336 0-25.6-11.264-25.6-25.6v-384h-153.6v384c0 14.336-11.264 25.6-25.6 25.6h-16.896z"  p-id="1309"></path></svg>