<?xml version="1.0" standalone="no"?><!DOCTYPE svg PUBLIC "-//W3C//DTD SVG 1.1//EN" "http://www.w3.org/Graphics/SVG/1.1/DTD/svg11.dtd"><svg t="1564622218552" class="icon" viewBox="0 0 1024 1024" version="1.1" xmlns="http://www.w3.org/2000/svg" p-id="1177" xmlns:xlink="http://www.w3.org/1999/xlink" width="128" height="128"><defs><style type="text/css"></style></defs><path d="M76.8 1024h870.4c14.336 0 25.6-11.264 25.6-25.6V25.6c0-14.336-11.264-25.6-25.6-25.6h-870.4c-14.336 0-25.6 11.264-25.6 25.6v972.8c0 14.336 11.264 25.6 25.6 25.6zM921.6 51.2v115.2h-15.36c-7.168 0-12.8 5.632-12.8 12.8s5.632 12.8 12.8 12.8h15.36V972.8H102.4V192h25.6c7.168 0 12.8-5.632 12.8-12.8s-5.632-12.8-12.8-12.8H102.4V51.2h819.2z"  p-id="1178"></path><path d="M578.56 192h40.96c7.168 0 12.8-5.632 12.8-12.8s-5.632-12.8-12.8-12.8h-40.96c-7.168 0-12.8 5.632-12.8 12.8s5.632 12.8 12.8 12.8zM824.32 192h40.96c7.168 0 12.8-5.632 12.8-12.8s-5.632-12.8-12.8-12.8h-40.96c-7.168 0-12.8 5.632-12.8 12.8s5.632 12.8 12.8 12.8zM742.4 192h40.96c7.168 0 12.8-5.632 12.8-12.8s-5.632-12.8-12.8-12.8h-40.96c-7.168 0-12.8 5.632-12.8 12.8s5.632 12.8 12.8 12.8zM496.64 192h40.96c7.168 0 12.8-5.632 12.8-12.8s-5.632-12.8-12.8-12.8h-40.96c-7.168 0-12.8 5.632-12.8 12.8s5.632 12.8 12.8 12.8zM660.48 192h40.96c7.168 0 12.8-5.632 12.8-12.8s-5.632-12.8-12.8-12.8h-40.96c-7.168 0-12.8 5.632-12.8 12.8s5.632 12.8 12.8 12.8zM250.88 192h40.96c7.168 0 12.8-5.632 12.8-12.8s-5.632-12.8-12.8-12.8h-40.96c-7.168 0-12.8 5.632-12.8 12.8s5.632 12.8 12.8 12.8zM168.96 192h40.96c7.168 0 12.8-5.632 12.8-12.8s-5.632-12.8-12.8-12.8h-40.96c-7.168 0-12.8 5.632-12.8 12.8s5.632 12.8 12.8 12.8zM414.72 192h40.96c7.168 0 12.8-5.632 12.8-12.8s-5.632-12.8-12.8-12.8h-40.96c-7.168 0-12.8 5.632-12.8 12.8s5.632 12.8 12.8 12.8zM332.8 192h40.96c7.168 0 12.8-5.632 12.8-12.8s-5.632-12.8-12.8-12.8h-40.96c-7.168 0-12.8 5.632-12.8 12.8s5.632 12.8 12.8 12.8z"  p-id="1179"></path><path d="M512 242.176c6.656 0 13.312 2.56 17.92 7.68l181.248 181.248a25.5488 25.5488 0 0 1-17.92 43.52H640v384c0 14.336-11.264 25.6-25.6 25.6H409.6c-14.336 0-25.6-11.264-25.6-25.6v-384H330.752a25.5488 25.5488 0 0 1-17.92-43.52l181.248-181.248c4.608-5.12 11.264-7.68 17.92-7.68z m119.296 181.248L512 304.128 392.704 423.424H409.6c14.336 0 25.6 11.264 25.6 25.6v384h153.6v-384c0-14.336 11.264-25.6 25.6-25.6h16.896z"  p-id="1180"></path></svg>