<?xml version="1.0" standalone="no"?><!DOCTYPE svg PUBLIC "-//W3C//DTD SVG 1.1//EN" "http://www.w3.org/Graphics/SVG/1.1/DTD/svg11.dtd"><svg t="1552459729596" class="icon" style="" viewBox="0 0 1024 1024" version="1.1" xmlns="http://www.w3.org/2000/svg" p-id="3555" xmlns:xlink="http://www.w3.org/1999/xlink" width="128" height="128"><defs><style type="text/css"></style></defs><path d="M316.5 820.1c-61.9-2.5-122.3-24.2-170.2-61-52.4-40.3-88.5-96.7-104.4-163.2-36-150.4 73-327.9 158.1-448.3 14.8-20.9 44.7-62.1 68.9-95.4C284 31.4 307.4 19.5 333 19.5c25.3 0 49.3 12.2 64.2 32.7 24.9 34.1 55.7 76.6 71.2 98.6 84 119.6 191.5 295.8 156 445-15.9 66.5-52 122.9-104.4 163.2-47.8 36.8-108.2 58.4-170.2 61-4.2 0.2-20.8 0.3-20.8 0.3l-12.5-0.2zM333 87.6c-3.8 0-7 1.7-9.2 4.7-24.1 33-53.7 73.9-68.4 94.6-77.5 109.6-177.1 269.6-147.5 393.4 12.2 51.1 39.8 94.3 79.8 125 36.8 28.3 83.5 45 131.5 46.9h23.4c52.3-2 98.9-18.7 135.8-47 40-30.7 67.6-74 79.8-125 29.2-122.6-69-281.5-145.3-390.4-15.3-21.7-45.9-63.9-70.5-97.6-2.4-3-5.7-4.6-9.4-4.6zM814.1 636.4c-34.7-1.4-68.5-13.5-95.3-34.1-29.3-22.6-49.5-54.2-58.4-91.3-19.9-82.9 38.9-179 84.8-244 7.8-11 23.6-32.9 36.5-50.4 9.7-13.4 24.7-21 41.3-21 16.3 0 31.8 7.9 41.3 21.1 13.1 18 29.4 40.5 37.7 52.1 45.3 64.6 103.3 159.9 83.7 242.3-8.9 37.2-29.1 68.7-58.4 91.3-26.8 20.6-60.6 32.7-95.1 34.1l-11.4 0.1-6.7-0.2z m-24.6-338.1c-39.8 56.4-91.1 138.5-76.4 200.1 5.9 24.9 19.3 45.9 38.7 60.8 18 13.8 40.8 21.9 64.2 22.9h12c24.8-1 47.8-8.9 66.1-22.9 19.4-14.9 32.8-35.9 38.7-60.8 14.5-61-36-142.5-75.3-198.6-7.5-10.7-22-30.7-34.5-47.8-12.2 16.7-26.2 36.2-33.5 46.3zM694.2 1002.9c-25.1-1-49.3-9.7-68.5-24.5-21.2-16.3-35.8-39-42.2-65.7-14-58.7 26.4-125 57.9-169.7 5.3-7.4 15.8-22 24.5-33.8 8-11.1 20.6-17.5 34.4-17.5 13.7 0 26.5 6.6 34.5 17.6 8.8 12 19.7 27 25.2 34.8 31.2 44.4 71 110.2 57.2 168.5-6.4 26.7-21 49.4-42 65.7-19.2 14.8-43.5 23.5-68.3 24.5l-8 0.1h-4.7zM685 774c-14.7 20.8-59.6 84.4-49.5 126.4 3.5 14.7 11.4 27 22.7 35.7 10.6 8.1 24 12.9 37.9 13.5h7.6c14.5-0.6 28.1-5.3 38.7-13.5 11.4-8.7 19.2-21.1 22.7-35.8 9.9-41.7-34.3-104.7-48.8-125.4l-16-22.2L685 774z" p-id="3556"></path></svg>