<?xml version="1.0" standalone="no"?><!DOCTYPE svg PUBLIC "-//W3C//DTD SVG 1.1//EN" "http://www.w3.org/Graphics/SVG/1.1/DTD/svg11.dtd"><svg t="1552460556689" class="icon" style="" viewBox="0 0 1024 1024" version="1.1" xmlns="http://www.w3.org/2000/svg" p-id="5865" xmlns:xlink="http://www.w3.org/1999/xlink" width="128" height="128"><defs><style type="text/css"></style></defs><path d="M917.980873 97.364515 906.550543 85.110423 943.184905 35.43914 860.962252 87.679945 876.672048 104.522542 838.37686 152.415318Z"  p-id="5866"></path><path d="M952.430476 243.921405 945.668469 228.589209 998.151797 193.049784 900.878356 216.413911 910.17407 237.485833 856.709391 270.798543Z"  p-id="5867"></path><path d="M779.097756 63.209624 762.734066 59.59633 764.289492 0 726.907093 86.35067 749.396293 91.315752 745.467821 150.388149Z"  p-id="5868"></path><path d="M116.470153 912.963091l118.616538 0L235.086691 258.163781 116.470153 258.163781 116.470153 912.963091zM143.585721 285.279349l64.384379 0 0 600.568175-64.384379 0L143.585721 285.279349z" p-id="5869"></path><path d="M264.582469 143.870712l0 857.098759 537.599028 0L802.181497 143.870712 264.582469 143.870712zM775.065929 973.853903 291.697013 973.853903 291.697013 170.986279l483.368916 0L775.065929 973.853903z" p-id="5870"></path><path d="M533.380448 575.49001c105.132432 0 190.359512-62.213947 190.359512-138.957819s-85.22708-138.957819-190.359512-138.957819c-105.132432 0-190.359512 62.213947-190.359512 138.957819S428.249039 575.49001 533.380448 575.49001zM533.380448 324.688917c90.157369 0 163.244968 50.074466 163.244968 111.842251 0 61.769832-73.087599 111.844298-163.244968 111.844298-90.156346 0-163.244968-50.074466-163.244968-111.844298C370.136503 374.762359 443.224102 324.688917 533.380448 324.688917z" p-id="5871"></path></svg>