<?xml version="1.0" standalone="no"?><!DOCTYPE svg PUBLIC "-//W3C//DTD SVG 1.1//EN" "http://www.w3.org/Graphics/SVG/1.1/DTD/svg11.dtd"><svg t="1539671170318" class="icon" style="" viewBox="0 0 1024 1024" version="1.1" xmlns="http://www.w3.org/2000/svg" p-id="13041" xmlns:xlink="http://www.w3.org/1999/xlink" width="200" height="200"><defs><style type="text/css"></style></defs><path d="M817.403509 1024h-610.807018A116.951579 116.951579 0 0 1 89.824561 907.22807v-790.45614A116.77193 116.77193 0 0 1 206.596491 0h610.807018A116.951579 116.951579 0 0 1 934.175439 116.77193v790.45614a116.951579 116.951579 0 0 1-116.77193 116.77193zM206.596491 53.894737A62.877193 62.877193 0 0 0 143.719298 116.77193v790.45614A62.877193 62.877193 0 0 0 206.596491 970.105263h610.807018a62.877193 62.877193 0 0 0 62.877193-62.877193v-790.45614A62.877193 62.877193 0 0 0 817.403509 53.894737z"  p-id="13042"></path><path d="M707.817544 924.294737h-395.22807a116.77193 116.77193 0 0 1-116.77193-116.77193v-574.877193a116.951579 116.951579 0 0 1 116.77193-116.77193h395.22807a116.951579 116.951579 0 0 1 116.77193 116.77193v574.877193a116.951579 116.951579 0 0 1-116.77193 116.77193z m-395.22807-754.526316a62.877193 62.877193 0 0 0-62.877193 62.877193v574.877193a62.877193 62.877193 0 0 0 62.877193 62.877193h395.22807a62.877193 62.877193 0 0 0 62.877193-62.877193v-574.877193a62.877193 62.877193 0 0 0-62.877193-62.877193z"  p-id="13043"></path><path d="M614.220351 449.841404l74.913684 0 0 128.808421-74.913684 0 0-128.808421Z"  p-id="13044"></path></svg>