<?xml version="1.0" standalone="no"?><!DOCTYPE svg PUBLIC "-//W3C//DTD SVG 1.1//EN" "http://www.w3.org/Graphics/SVG/1.1/DTD/svg11.dtd"><svg t="1541638608792" class="icon" style="" viewBox="0 0 1024 1024" version="1.1" xmlns="http://www.w3.org/2000/svg" p-id="7042" xmlns:xlink="http://www.w3.org/1999/xlink" width="200" height="200"><defs><style type="text/css"></style></defs><path d="M655.36 727.04s-5.12 0 0 0c-20.48 0-30.72-15.36-30.72-30.72 0-61.44-51.2-107.52-107.52-107.52S409.6 640 409.6 696.32c0 15.36-15.36 30.72-30.72 30.72s-40.96-10.24-40.96-30.72c0-97.28 76.8-174.08 174.08-174.08 56.32 0 102.4 25.6 138.24 66.56 5.12-10.24 20.48-10.24 30.72-10.24 15.36 5.12 30.72 20.48 25.6 35.84l-20.48 87.04c-5.12 15.36-15.36 25.6-30.72 25.6z" fill="" p-id="7043"></path><path d="M512 896c-56.32 0-102.4-25.6-138.24-66.56-5.12 10.24-20.48 10.24-30.72 10.24-15.36-5.12-30.72-20.48-25.6-35.84l25.6-87.04c5.12-15.36 20.48-25.6 35.84-25.6 15.36 0 30.72 15.36 30.72 30.72 0 61.44 51.2 107.52 107.52 107.52s107.52-51.2 107.52-107.52c0-15.36 15.36-30.72 30.72-30.72s30.72 15.36 30.72 30.72c0 97.28-76.8 174.08-174.08 174.08z" fill="" p-id="7044"></path><path d="M901.12 993.28H128c-15.36 0-30.72-15.36-30.72-30.72V435.2c0-15.36 15.36-30.72 30.72-30.72h773.12c15.36 0 30.72 15.36 30.72 30.72v522.24c0 20.48-15.36 35.84-30.72 35.84zM158.72 926.72H870.4v-460.8H158.72v460.8z" fill="" p-id="7045"></path><path d="M778.24 460.8c-15.36 0-30.72-15.36-30.72-30.72V332.8c0-128-107.52-235.52-235.52-235.52-128 0-235.52 107.52-235.52 235.52v97.28c0 15.36-10.24 30.72-30.72 30.72s-30.72-15.36-30.72-35.84V332.8C215.04 168.96 348.16 35.84 512 35.84c163.84 0 296.96 133.12 296.96 296.96v97.28c0 15.36-10.24 30.72-30.72 30.72z" fill="" p-id="7046"></path></svg>