<?xml version="1.0" standalone="no"?><!DOCTYPE svg PUBLIC "-//W3C//DTD SVG 1.1//EN" "http://www.w3.org/Graphics/SVG/1.1/DTD/svg11.dtd"><svg t="1541652391628" class="icon" style="" viewBox="0 0 1024 1024" version="1.1" xmlns="http://www.w3.org/2000/svg" p-id="22329" xmlns:xlink="http://www.w3.org/1999/xlink" width="200" height="200"><defs><style type="text/css"></style></defs><path d="M817.17 378.246h-47.808V245.107l-3.947-11.608c-2.309-3.016-5.212-7.912-8.937-14.057C728.274 172.91 662.259 64 512 64c-172.579 0-243.585 176.192-246.527 183.676l-1.302 3.36v127.21H206.83c-31.537 0-57.192 25.664-57.192 57.191v467.371c0 31.537 25.655 57.191 57.192 57.191h610.34c31.538 0 57.192-25.654 57.192-57.191v-467.37c0-31.528-25.654-57.192-57.192-57.192zM302.297 258.529C312.128 236.282 377.12 102.128 512 102.128c128.774 0 184.905 92.573 211.881 137.067 2.812 4.674 5.175 8.443 7.354 11.767v127.284H302.297V258.529z m533.938 644.28c0 10.518-8.527 19.063-19.065 19.063H206.83c-10.5 0-19.064-8.546-19.064-19.063V435.438c0-10.5 8.564-19.063 19.064-19.063h610.34c10.538 0 19.065 8.563 19.065 19.063v467.371z" fill="" p-id="22330"></path><path d="M540.447 578.574h-56.893c-42.057 0-76.257 34.2-76.257 76.256v57.639c0 42.037 34.2 76.255 76.257 76.255h56.893c42.056 0 76.256-34.218 76.256-76.255V654.83c0-42.056-34.2-76.256-76.256-76.256z m38.127 133.895c0 21.037-17.108 38.127-38.127 38.127h-56.893c-21.02 0-38.129-17.09-38.129-38.127v-57.62c0-21.019 17.109-38.128 38.129-38.128h56.893c21.019 0 38.127 17.109 38.127 38.128v57.62zM381.141 245.051l32.934 19.25c2.271-3.863 57.675-94.249 176.974-49.028l13.516-35.652c-150.092-56.903-222.717 64.21-223.424 65.43z" fill="" p-id="22331"></path></svg>