<?xml version="1.0" standalone="no"?><!DOCTYPE svg PUBLIC "-//W3C//DTD SVG 1.1//EN" "http://www.w3.org/Graphics/SVG/1.1/DTD/svg11.dtd"><svg t="1556182085406" class="icon" style="" viewBox="0 0 1024 1024" version="1.1" xmlns="http://www.w3.org/2000/svg" p-id="3822" xmlns:xlink="http://www.w3.org/1999/xlink" width="128" height="128"><defs><style type="text/css"></style></defs><path d="M512 89.6c112.82944 0 218.90048 43.93728 298.68032 123.71712C890.46016 293.09952 934.4 399.17312 934.4 512c0 112.82944-43.93984 218.90048-123.71968 298.68032S624.82944 934.4 512 934.4c-112.82688 0-218.90304-43.93984-298.68288-123.71968S89.6 624.82944 89.6 512c0-112.82688 43.93728-218.90048 123.71712-298.68288C293.09952 133.53728 399.17312 89.6 512 89.6m0-64C243.3664 25.6 25.6 243.36896 25.6 512s217.7664 486.4 486.4 486.4c268.63104 0 486.4-217.76896 486.4-486.4S780.63104 25.6 512 25.6z" p-id="3823"></path><path d="M511.95648 818.78016c-62.06464 0-113.14432-48.1664-116.94848-109.94432H217.22624c-16.78336 0-30.4384-13.65504-30.4384-30.4384 0-16.78592 13.65504-30.44096 30.4384-30.44096h54.70208v-178.72128c0-63.71328 19.64288-125.71648 55.31392-174.58688 34.97728-47.85408 83.5072-80.93696 136.768-93.27104 0.22528-26.1504 21.57056-47.35744 47.77728-47.35744 26.20416 0 47.54688 21.20448 47.77216 47.35744 53.4272 12.37504 101.97504 45.45536 136.86016 93.2736 35.66848 48.86784 55.31136 110.87104 55.31136 174.58688v178.6368h55.04512c16.78592 0 30.44096 13.65504 30.44096 30.4384 0 16.78592-13.65504 30.44096-30.44096 30.44096h-177.8688c-3.7888 61.80864-54.8736 110.02624-116.95104 110.02624z m-55.72608-109.94432c3.64288 28.08064 27.28448 48.98304 55.72608 48.98304a55.99232 55.99232 0 0 0 55.72864-48.98304h-111.45472z m234.44992-60.96384v-178.72384c0.04096-55.81056-18.6624-108.30848-52.6592-147.82464-33.80992-39.296-78.6432-60.93824-126.2336-60.93824-98.64192 0-178.89536 93.64992-178.89536 208.76032v178.72384h357.78816z" p-id="3824"></path><path d="M511.78752 159.13984c23.5136 0 42.65472 19.14112 42.65472 42.65728v3.69152l2.74944 0.59904c52.61056 11.84512 100.59008 44.288 135.0912 91.57888 35.0208 47.97696 54.33088 108.9152 54.33088 171.56864v183.7568h60.16512c13.9904 0 25.32096 11.41504 25.32096 25.3184 0 13.9904-11.41504 25.32096-25.32096 25.32096H624.0512l-0.17408 3.34848c-2.91584 59.90656-52.096 106.68288-111.91808 106.68288-59.82208 0-108.99968-46.8608-111.91808-106.5984l-0.17152-3.34848H217.22624c-13.9904 0-25.3184-11.41504-25.3184-25.3184 0-13.9904 11.41504-25.32096 25.3184-25.32096h59.82208v-183.84128c0-62.65344 19.31008-123.59168 54.32832-171.56864 34.50368-47.2064 82.3936-79.73376 135.00672-91.57888l2.74688-0.59904v-3.69152c-0.00256-23.51616 19.13856-42.65728 42.65728-42.65728m-184.01536 493.85216h368.02816v-183.84384c0.08448-117.9264-82.48064-213.88032-184.0128-213.88032-101.44768 0-184.01536 95.95392-184.01536 213.88032v183.84384m245.55264 50.72384h-122.82112l0.42752 3.86304a61.10976 61.10976 0 0 0 61.02272 55.36c31.75936 0 57.9328-23.77472 61.02272-55.36l0.34816-3.86304M511.78752 148.89984c-27.65568 0-50.4192 21.32992-52.70784 48.40192-53.0048 13.29664-101.10976 46.62784-135.96928 94.3232-36.30848 49.74592-56.30208 112.82176-56.30208 177.61024v173.60128H217.22624c-19.60704 0-35.5584 15.95136-35.5584 35.56096s15.95136 35.5584 35.5584 35.5584h173.06112c6.24128 62.13632 58.50368 109.94432 121.66912 109.94432 63.168 0 115.42528-47.8336 121.67168-110.0288h173.14816c19.60704 0 35.56096-15.95136 35.56096-35.56096s-15.95136-35.5584-35.56096-35.5584h-49.92512v-173.5168c0-64.7936-19.99616-127.86944-56.29952-177.60512-34.7904-47.68768-82.944-81.02912-136.05888-94.33088-2.29376-27.06944-25.05472-48.39936-52.70528-48.39936z m-173.77536 493.85216v-173.60384c0-112.28928 77.95456-203.64032 173.77536-203.64032 46.08 0 89.52832 21.00992 122.35008 59.15648 33.20064 38.58688 51.46368 89.8944 51.42272 144.47616v173.61152H338.01216z m124.37248 71.20384h99.15648c-5.5168 22.50752-25.68448 38.74304-49.58464 38.74304a50.87744 50.87744 0 0 1-49.57184-38.74304z" p-id="3825"></path></svg>