<?xml version="1.0" standalone="no"?><!DOCTYPE svg PUBLIC "-//W3C//DTD SVG 1.1//EN" "http://www.w3.org/Graphics/SVG/1.1/DTD/svg11.dtd"><svg t="1541595169213" class="icon" style="" viewBox="0 0 1024 1024" version="1.1" xmlns="http://www.w3.org/2000/svg" p-id="6279" xmlns:xlink="http://www.w3.org/1999/xlink" width="200" height="200"><defs><style type="text/css"></style></defs><path d="M511.9488 0.09728C229.12 0.09728 0 229.21728 0 512.0512 0 794.88 229.12 1024 511.9488 1024c282.83392 0 511.95392-229.12 511.95392-511.9488 0-282.83392-229.12-511.95392-511.95392-511.95392z m0 998.23104c-268.5696 0-486.28224-217.7024-486.28224-486.28224 0-268.5696 217.71264-486.28736 486.28224-486.28736 268.57984 0 486.28736 217.71264 486.28736 486.28736 0 268.58496-217.70752 486.28224-486.28736 486.28224z" fill="" p-id="6280"></path><path d="M514.8416 533.888c-34.56 0-62.63296 28.06784-62.63296 62.63296 0 13.75744 4.36224 26.7264 12.63616 37.6832 0.2304 0.2304 0.33792 0.44544 0.5632 0.67584 15.43168 18.00192 16.54272 30.86336 16.66048 32.09216v35.79392a32.73728 32.73728 0 0 0 32.768 32.76288c18.11968 0 32.768-14.6432 32.768-32.76288v-37.69344h0.11264c0.10752-0.78336 0.3328-2.56512 1.23392-5.15072 1.67424-5.14048 5.59616-13.52704 14.98624-24.38144 0.11264-0.10752 0.22528-0.3328 0.44544-0.44544a61.54752 61.54752 0 0 0 13.312-38.4768c-0.3328-34.67264-28.40576-62.7456-62.85312-62.7456v0.01536z m27.17184 83.55328c-21.91872 25.70752-22.92736 44.18048-22.7072 49.32096v36.00896a4.48512 4.48512 0 0 1-4.46976 4.47488 4.48512 4.48512 0 0 1-4.46976-4.47488v-35.8912c0-2.69312-0.67072-23.59808-23.14752-49.9968a33.8176 33.8176 0 0 1-6.71744-20.23936 34.34496 34.34496 0 0 1 34.33472-34.33984c18.89792 0 34.33472 15.44192 34.33472 34.33984a35.16416 35.16416 0 0 1-7.15776 20.80256v-0.00512z" fill="" p-id="6281"></path><path d="M753.17248 414.11072h-1.79712v-0.22016h-32.98816V323.072c0-0.55808 0-1.23392-0.11264-1.792a201.15456 201.15456 0 0 0-66.43712-125.37856 202.0096 202.0096 0 0 0-134.08768-50.88768c-54.02112 0-104.80128 21.02784-142.93504 59.1616-38.13888 38.13376-59.16672 88.91392-59.16672 142.92992v66.87744h-38.58944c-26.72128 0-48.42496 21.69856-48.42496 48.43008v342.78912c0 26.7264 21.69856 48.43008 48.42496 48.43008h295.6032c0.43008 0 0.89088 0 1.22368-0.11776h177.94048c0.45056 0 0.896 0.11776 1.2288 0.11776 26.61376 0 48.4352-21.69344 48.4352-48.43008v-342.6816c0-26.7264-21.70368-48.42496-48.32256-48.42496l0.00512 0.01536zM343.94624 347.23328c0-46.41792 18.11456-90.03008 50.8928-122.91584 32.87552-32.87552 76.49792-50.88768 122.9056-50.88768a173.45536 173.45536 0 0 1 115.2 43.72992c31.31904 27.74016 51.55328 65.64864 57.03168 106.91584V414.0032l-346.03008 0.22528V347.23328z m429.24544 458.09664a20.13184 20.13184 0 0 1-18.56512 20.02432H276.95616a20.00896 20.00896 0 0 1-20.02432-20.02432v-342.784a20.00384 20.00384 0 0 1 20.02432-20.02432h52.7872c0.67072 0 1.45408-0.11264 2.1248-0.2304 0.78336 0.11264 1.56672 0.2304 2.35008 0.2304H603.0848c1.11616 0 2.80064 0 5.02784-0.11264h94.6176c0.55808 0.11264 1.23392 0.11264 1.79712 0.11264h48.65024a19.99872 19.99872 0 0 1 20.01408 20.02432v342.784z" fill="" p-id="6282"></path></svg>