<?xml version="1.0" standalone="no"?><!DOCTYPE svg PUBLIC "-//W3C//DTD SVG 1.1//EN" "http://www.w3.org/Graphics/SVG/1.1/DTD/svg11.dtd"><svg t="1541595054422" class="icon" style="" viewBox="0 0 1024 1024" version="1.1" xmlns="http://www.w3.org/2000/svg" p-id="1858" xmlns:xlink="http://www.w3.org/1999/xlink" width="200" height="200"><defs><style type="text/css"></style></defs><path d="M802.93751 366.101107l0-79.389757C801.254568 128.627578 669.702995 0 509.720036 0 349.172962 0 217.649595 128.956645 216.399141 287.745561l0 78.637604C143.158235 372.052519 85.336467 433.409406 85.336467 508.145215l0 373.669648c0 78.402556 63.791983 142.185137 142.119324 142.185137l569.088418 0c78.42136 0 142.109922-63.782581 142.109922-142.185137L938.654131 508.145215C938.663533 431.895698 878.369062 369.391777 802.93751 366.101107M265.796794 288.03702C266.821602 160.556476 378.375305 51.898562 507.736232 51.898562c128.947243 0 244.449749 108.366454 245.803625 235.433314l0 77.302532L265.796794 364.634409 265.796794 288.03702zM894.784803 881.814863c0 47.047175-51.231026 95.288393-98.231192 95.288393L227.455791 977.103256c-47.000165 0-96.20978-48.241218-96.20978-95.288393L131.246011 508.145215c0-47.047175 38.265788-99.519254 85.294159-99.519254l569.060213 0c47.028371 0 109.175019 52.472079 109.175019 99.519254L894.775401 881.814863z" p-id="1859"></path><path d="M509.720036 510.147823c-65.061241 0-117.881191 52.284041-117.881191 116.593129 0 36.629855 17.619186 70.730595 46.87794 92.655857l0 118.595736c0 15.748205 12.701985 28.40318 28.374975 28.40318l85.10612 0c15.701195 0 28.412582-12.654975 28.412582-28.40318L580.610463 719.40621c29.258755-21.972272 46.812127-56.035404 46.812127-92.702866C627.431992 562.422462 574.630846 510.147823 509.720036 510.147823M552.93123 686.922599c-11.113062 5.998421-18.03287 17.647392-18.03287 30.208348l0 108.131406-48.222414 0L486.675946 717.121545c0-12.560956-6.92921-24.209927-18.03287-30.208348-23.627008-12.730191-31.712654-36.864903-31.712654-62.879997 0-39.732486 32.97251-71.981049 73.475954-71.981049 40.531649 0 73.522963 32.257965 73.522963 71.981049C583.778908 650.057697 576.558239 674.183007 552.93123 686.922599" p-id="1860"></path></svg>