<?xml version="1.0" standalone="no"?><!DOCTYPE svg PUBLIC "-//W3C//DTD SVG 1.1//EN" "http://www.w3.org/Graphics/SVG/1.1/DTD/svg11.dtd"><svg t="1556349044704" class="icon" style="" viewBox="0 0 1024 1024" version="1.1" xmlns="http://www.w3.org/2000/svg" p-id="42610" xmlns:xlink="http://www.w3.org/1999/xlink" width="128" height="128"><defs><style type="text/css"></style></defs><path d="M512 1024A512 512 0 1 1 512 0a512 512 0 0 1 0 1024z m0-51.2A460.8 460.8 0 1 0 512 51.2a460.8 460.8 0 0 0 0 921.6z m3.072-300.828444c-19.228444 0-32.028444-12.743111-32.028444-31.971556v-64a32.085333 32.085333 0 0 1 64 0v64c0 19.228444-12.8 32.028444-31.971556 32.028444z m242.801778-63.488a16.213333 16.213333 0 0 0 16.896-16.497778V512c0-9.102222-0.739556-20.536889-4.380445-29.866667a67.015111 67.015111 0 0 0-15.36-21.731555c-10.296889-10.752-24.064-13.255111-41.528889-15.644445l-38.456888-4.721777v-24.064A158.435556 158.435556 0 0 0 515.072 256 158.435556 158.435556 0 0 0 354.986667 416.028444v24.007112l-31.971556 4.721777c-19.114667 3.868444-35.953778 2.616889-54.272 19.968-9.784889 9.329778-12.8 33.678222-12.8 47.274667v192c0 35.214222 30.151111 68.835556 65.422222 68.835556h385.649778c5.859556 0 24.576-3.868444 36.465778-11.719112 7.964444-5.233778 13.084444-11.491556 16.042667-13.994666 11.093333-9.272889 15.189333-34.417778 15.189333-43.121778v-15.985778c0-9.614222-7.281778-16.270222-16.896-16.270222-9.614222 0-18.773333 6.656-18.773333 16.270222v15.985778c0 19.228444-12.856889 32.028444-32.028445 32.028444h-384c-19.228444 0-32.028444-12.8-32.028444-32.028444V512c0-19.228444 12.8-32.028444 32.028444-32.028444h384c19.171556 0 31.971556 12.8 31.971556 32.028444v79.985778c0 9.614222 9.216 16.497778 18.830222 16.497778zM402.432 439.751111v-23.324444c0-61.895111 50.631111-117.475556 112.64-117.475556 61.952 0 112.64 50.631111 112.64 112.64v28.16h-225.28z" p-id="42611"></path></svg>