<?xml version="1.0" standalone="no"?><!DOCTYPE svg PUBLIC "-//W3C//DTD SVG 1.1//EN" "http://www.w3.org/Graphics/SVG/1.1/DTD/svg11.dtd"><svg t="1541473776241" class="icon" style="" viewBox="0 0 1024 1024" version="1.1" xmlns="http://www.w3.org/2000/svg" p-id="2255" xmlns:xlink="http://www.w3.org/1999/xlink" width="200" height="200"><defs><style type="text/css"></style></defs><path d="M753.822928 973.432099h-484.007055c-39.731922 0-72.239859-32.507937-72.239859-72.239859v-769.354497c0-39.731922 32.507937-72.239859 72.239859-72.239859h484.007055c39.731922 0 72.239859 32.507937 72.239859 72.239859v769.354497c0 39.731922-32.146737 72.239859-72.239859 72.239859m-484.007055-877.714286c-19.865961 0-36.119929 16.253968-36.119929 36.11993v769.354497c0 19.865961 16.253968 36.119929 36.119929 36.119929h484.007055c19.865961 0 36.119929-16.253968 36.119929-36.119929v-769.354497c0-19.865961-16.253968-36.119929-36.119929-36.11993h-484.007055z"  p-id="2256"></path><path d="M222.859965 727.816578h585.142857v36.11993h-585.142857zM222.859965 153.5097h585.142857v36.11993h-585.142857zM567.805291 852.430335c0 26.367549-23.839153 48.039506-53.457496 48.039506-29.618342 0-53.457496-21.310758-53.457495-48.039506 0-26.367549 23.839153-48.039506 53.457495-48.039506 29.257143 0 53.457496 21.310758 53.457496 48.039506"  p-id="2257"></path></svg>