<?xml version="1.0" standalone="no"?><!DOCTYPE svg PUBLIC "-//W3C//DTD SVG 1.1//EN" "http://www.w3.org/Graphics/SVG/1.1/DTD/svg11.dtd"><svg t="1573438342723" class="icon" viewBox="0 0 1024 1024" version="1.1" xmlns="http://www.w3.org/2000/svg" p-id="2458" xmlns:xlink="http://www.w3.org/1999/xlink" width="128" height="128"><defs><style type="text/css"></style></defs><path d="M903.466667 834.176 126.698667 834.176c-56.490667 0-102.442667-45.909333-102.442667-102.421333L24.256 370.453333c0-56.490667 45.952-102.442667 102.442667-102.442667l770.602667 0c56.490667 0 102.464 45.952 102.464 102.442667l0 165.930667c0 19.157333-5.952 24.576-19.413333 25.536-8.874667-0.917333-24-4.416-24-23.616l0-165.909333c0-18.218667-24.426667-56.32-59.050667-56.32L126.698667 316.074667c-18.218667 0-54.784 23.061333-54.378667 54.378667l0 361.301333c0 18.218667 18.24 54.506667 54.378667 54.378667l770.602667 0c59.157333-0.170667 68.842667-36.16 68.842667-54.378667l0-35.093333L183.125333 696.661333c-19.136 0-33.088-3.882667-33.088-23.04 0-21.461333 13.930667-25.002667 33.088-25.002667l781.909333 0c19.157333 0 34.709333-2.666667 34.709333 13.376l0 69.76c0 71.552-45.952 102.421333-102.464 102.421333L903.466667 834.176zM897.301333 834.176" p-id="2459"></path><path d="M829.546667 455.338667l-180.629333 0c-19.2 0-34.709333-15.530667-34.709333-34.709333 0-19.157333 15.509333-34.688 34.709333-34.688l180.629333 0c19.157333 0 34.709333 15.530667 34.709333 34.688C864.256 439.829333 848.704 455.338667 829.546667 455.338667L829.546667 455.338667zM829.546667 455.338667" p-id="2460"></path></svg>