<?xml version="1.0" standalone="no"?><!DOCTYPE svg PUBLIC "-//W3C//DTD SVG 1.1//EN" "http://www.w3.org/Graphics/SVG/1.1/DTD/svg11.dtd"><svg t="1552459510839" class="icon" style="" viewBox="0 0 1024 1024" version="1.1" xmlns="http://www.w3.org/2000/svg" p-id="2637" xmlns:xlink="http://www.w3.org/1999/xlink" width="128" height="128"><defs><style type="text/css"></style></defs><path d="M985.6 1024c-7.68 0-18.944-3.584-26.624-11.264l-153.6-153.6C716.8 933.888 601.6 976.384 487.936 976.384c-128 0-253.44-52.224-344.576-143.36-189.952-189.952-189.952-499.2 0-689.152C236.032 51.2 358.4 0.512 487.936 0.512c124.928 0 247.296 49.152 335.872 135.168 8.192 8.192 11.264 16.384 11.264 27.136 0 22.528-15.872 38.4-38.4 38.4-10.752 0-18.944-3.584-26.624-11.264C692.224 117.76 591.872 77.824 487.424 77.824c-109.568 0-212.992 43.008-290.816 120.832-160.256 160.256-160.256 421.376 0 582.144 77.824 77.824 181.248 120.832 290.816 120.832 108.544 0 212.992-43.008 293.888-120.832 115.2-117.76 151.04-291.84 91.136-442.88-4.096-5.12-4.096-10.752-4.096-13.824 0-22.528 15.872-38.4 38.4-38.4 15.872 0 30.72 11.264 34.816 26.624 67.072 169.472 35.328 357.888-82.944 494.592l153.6 153.6c15.36 15.36 15.36 38.4 0 53.76-7.68 6.144-18.944 9.728-26.624 9.728z" fill="" p-id="2638"></path><path d="M626.176 582.656l-8.704-4.608-156.16-134.656-82.944 98.304c-6.656 11.776-17.92 18.944-30.72 18.944-2.048 0-4.608 0-6.656-0.512H226.816c-22.528 0-38.4-15.872-38.4-38.4s15.872-38.4 38.4-38.4h96.768l97.28-113.664c6.656-12.288 18.944-18.432 36.352-18.432 6.144 0 12.288 0 17.92 5.632l161.28 139.776 15.872-15.872c7.168-7.168 17.92-11.264 29.696-11.264h115.2c10.752 0 20.48 4.096 27.648 11.776 6.656 7.168 10.24 16.896 10.24 26.112 0 22.528-15.872 38.4-38.4 38.4H693.76l-26.112 26.112c-2.048 4.608-6.144 7.168-10.752 7.68 0 0-0.512 0.512-1.024 0.512-2.048 1.024-5.12 2.56-8.704 2.56h-20.992z" fill="" p-id="2639"></path></svg>