<?xml version="1.0" standalone="no"?><!DOCTYPE svg PUBLIC "-//W3C//DTD SVG 1.1//EN" "http://www.w3.org/Graphics/SVG/1.1/DTD/svg11.dtd"><svg t="1539825535182" class="icon" style="" viewBox="0 0 1024 1024" version="1.1" xmlns="http://www.w3.org/2000/svg" p-id="14561" xmlns:xlink="http://www.w3.org/1999/xlink" width="200" height="200"><defs><style type="text/css"></style></defs><path d="M114.296 496.704V149.987c11.022-8.325 20.868-20.41 33.279-24.294 44.286-13.857 88.937-27.486 134.385-36.463 71.181-14.066 143.125-24.279 214.744-36.12h35.691c6.565 1.579 13.051 3.894 19.708 4.621 113.156 12.299 224.08 35.507 333.405 66.981 21.351 6.149 33.908 17.726 34.394 40.571v351.815c-1.752 15.037-3.824 30.045-5.203 45.112-9.214 100.521-43.848 189.023-120.981 257.667-76.437 68.028-161.537 122.223-256.224 161.21h-40.79c-63.097-37.175-128.443-71.063-188.742-112.332-82.315-56.325-145.412-130.398-170.193-229.749-11.6-46.496-15.877-94.81-23.473-142.302zM863.482 361.81c-1.565-0.08-3.132-0.165-4.695-0.244 0-52.656-0.64-105.327 0.366-157.962 0.326-16.989-3.172-25.583-21.742-29.452-55.481-11.557-110.029-28.088-165.805-37.634-59.116-10.113-119.371-21.132-178.861-19.797-102.914 2.305-202.579 29.223-300.81 59.249-6.879 2.101-15.847 13.011-15.807 19.783 0.692 117.869-0.157 235.863 5.29 353.558 3.692 79.788 33.416 151.515 90.573 210.34 63.618 65.478 140.234 112.237 220.597 152.873 14.669 7.414 40.571 6.443 54.937-1.768 60.937-34.84 121.586-70.965 178.365-112.104 70.157-50.843 113.971-121.435 123.095-208.552 7.937-75.77 9.897-152.167 14.497-228.29z" fill="" p-id="14562"></path><path d="M454.724 583.064c80.554-77.856 161.077-155.638 241.522-233.494 10.359-10.023 19.888-20.943 30.563-30.603 17.894-16.192 42.384-16.407 57.063-1.28 14.985 15.436 15.396 39.486-0.707 57.406-16.429 18.289-34.25 35.323-51.485 52.875-78.448 79.902-156.922 159.78-235.351 239.697-25.944 26.439-48.63 27.196-74.271 1.239-49.477-50.086-98.781-100.347-147.713-150.961-23.295-24.1-18.956-58.034 8.41-69.392 20.181-8.375 35.925 0.488 50.126 14.535 41.587 41.141 83.351 82.101 121.843 119.978z" fill="" p-id="14563"></path></svg>