<?xml version="1.0" standalone="no"?><!DOCTYPE svg PUBLIC "-//W3C//DTD SVG 1.1//EN" "http://www.w3.org/Graphics/SVG/1.1/DTD/svg11.dtd"><svg t="1539825305709" class="icon" style="" viewBox="0 0 1024 1024" version="1.1" xmlns="http://www.w3.org/2000/svg" p-id="9109" xmlns:xlink="http://www.w3.org/1999/xlink" width="200" height="200"><defs><style type="text/css"></style></defs><path d="M811.392 568.576c2.944-62.592-19.712-123.648-62.976-168.96-43.136-45.312-103.04-71.04-165.76-71.168-96.768-0.128-183.04 60.8-215.424 151.936-7.68-1.792-15.616-2.688-23.552-2.688-53.248 0.128-98.688 38.272-107.904 90.624-83.456 9.856-150.912 85.248-150.912 173.184 0 94.464 77.44 174.336 169.216 174.336h537.6c91.776 0 169.216-79.872 169.344-174.208 0-87.68-66.56-162.688-149.632-173.056z m-37.12 303.872H271.872c-75.776-1.152-136.96-55.296-136.96-131.456 0-73.6 57.088-133.76 129.408-138.752 13.056-45.312 54.784-78.464 104.32-78.464 13.056 0 25.472 2.304 36.992 6.528 14.208-85.76 88.704-151.04 178.432-151.04 99.84 0 180.864 81.024 180.864 180.864 0 14.592-1.792 28.672-4.992 42.24 3.712-0.256 7.552-0.512 11.264-0.512 76.8 0 139.136 62.336 139.136 139.136 0.256 76.032-60.544 129.92-136.064 131.456z" p-id="9110"></path><path d="M229.632 555.52c2.816-15.616 8.832-30.08 17.28-42.496-11.008-24.32-17.024-51.2-17.024-79.616 0-107.136 86.784-193.92 193.92-193.92 62.848 0 118.656 29.824 154.112 76.16 23.168 0.128 46.08 3.84 67.712 10.752-39.808-82.432-124.16-139.136-221.824-139.136-136.064 0-246.272 110.208-246.272 246.272 0 45.696 12.544 88.576 34.176 125.312 5.888-1.536 11.904-2.56 17.92-3.328zM132.48 460.288h-29.44c-14.08 0-25.6-11.52-25.6-25.6v-3.968c0-14.08 11.52-25.6 25.6-25.6h29.44c14.08 0 25.6 11.52 25.6 25.6v3.968c0 14.08-11.52 25.6-25.6 25.6zM185.856 233.6l-20.864-20.864c-9.984-9.984-9.984-26.24 0-36.224l2.816-2.816c9.984-9.984 26.24-9.984 36.224 0l20.864 20.864c9.984 9.984 9.984 26.24 0 36.224l-2.816 2.816c-9.984 9.856-26.368 9.856-36.224 0zM399.232 138.752v-29.44c0-14.08 11.52-25.6 25.6-25.6h3.968c14.08 0 25.6 11.52 25.6 25.6v29.44c0 14.08-11.52 25.6-25.6 25.6h-3.968c-14.08 0-25.6-11.52-25.6-25.6zM682.368 212.224l-20.864 20.864c-9.984 9.984-26.24 9.984-36.224 0l-2.816-2.816c-9.984-9.984-9.984-26.24 0-36.224l20.864-20.864c9.984-9.984 26.24-9.984 36.224 0l2.816 2.816c9.984 9.984 9.984 26.368 0 36.224z" p-id="9111"></path></svg>