<?xml version="1.0" standalone="no"?><!DOCTYPE svg PUBLIC "-//W3C//DTD SVG 1.1//EN" "http://www.w3.org/Graphics/SVG/1.1/DTD/svg11.dtd"><svg t="1539825459764" class="icon" style="" viewBox="0 0 1024 1024" version="1.1" xmlns="http://www.w3.org/2000/svg" p-id="13858" xmlns:xlink="http://www.w3.org/1999/xlink" width="200" height="200"><defs><style type="text/css"></style></defs><path d="M864 365.218133 864 128l-292.048 50.686933 0 45.789867c-28.861867 0-122.5152 0-179.354667 0-63.106133 0-138.530133-95.568-138.530133-95.568l-46.666667 47.793067c0 0 33.392 27.4144 74.530133 52.874667-24.557867 16.085333-55.853867 38.680533-74.477867 60.1312-48.802133 56.206933-47.758933 136.578133-47.3664 166.834133 0.0288 2.202667 0.296533 291.943467 0.299733 294.2848l47.005867-0.0512c-0.002133-2.340267-0.272-292.4256-0.304-294.871467-0.357333-27.517867-1.192533-91.959467 35.495467-134.215467 19.8272-22.836267 63.115733-51.2224 87.4464-65.889067 21.352533 9.794133 42.257067 16.448 59.645867 16.448 22.4544 0 51.210667 0 79.5584 0l0 20.427733-139.291733 78.603733c-17.124267 7.076267-29.2128 24.247467-29.2128 44.325333l0 429.988267c0 26.4032 20.8864 50.4064 46.657067 50.4064l284.721067 0c25.771733 0 46.666667-24.004267 46.666667-50.4064L678.7744 415.604267c0-17.9872-9.7056-33.6448-24.040533-41.800533l0.2336-0.4352L515.349333 294.069333l0-21.821867c24.6336 0 45.451733 0 56.6016 0l0 42.282667L864 365.218133zM632.1088 702.254933l-98.065067 0L534.043733 558.917333l98.065067 0L632.1088 702.254933zM632.1088 511.147733 487.377067 511.147733 487.377067 750.048l144.731733 0 0 95.544533L347.386667 845.592533 347.386667 460.244267 347.306667 460.244267l0-44.501333 0.2848 0.529067 143.470933-80.962133 140.920533 80.039467 0.125867 0.2528L632.1088 511.147733zM618.957867 219.3472l198.036267-34.370133 0 123.265067-198.036267-34.3712L618.957867 219.3472z" p-id="13859"></path></svg>