<?xml version="1.0" standalone="no"?><!DOCTYPE svg PUBLIC "-//W3C//DTD SVG 1.1//EN" "http://www.w3.org/Graphics/SVG/1.1/DTD/svg11.dtd"><svg t="1541652546830" class="icon" style="" viewBox="0 0 1025 1024" version="1.1" xmlns="http://www.w3.org/2000/svg" p-id="23065" xmlns:xlink="http://www.w3.org/1999/xlink" width="200.1953125" height="200"><defs><style type="text/css"></style></defs><path d="M512.01904 64c86.52 0 145.28 29.44 174.6 87.504 24.504 48.56 24.504 107.248 24.504 159 0 67.12-33.88 147.28-93.024 219.872l-37.504 46.096 43.192 40.84c19.568 18.44 62.016 41.256 138.656 79.568 71.768 35.872 120.584 61.152 143.904 84.496 41.104 41.096 53.072 118 53.632 156.968 0.096 5.688-2.128 11.248-6.096 15.28-4.064 4.136-9.472 6.384-15.216 6.384L85.32304 960.008c-5.664 0-11.224-2.312-15.192-6.384-3.968-4.032-6.2-9.592-6.144-15.248 0.184-10.744 3.144-106.472 53.632-157 23.32-23.312 72.144-48.552 143.904-84.496 76.608-38.248 119.088-61.104 138.656-79.632l43.192-40.816-37.504-46.064c-59.072-72.56-92.992-152.72-92.992-219.872 0-51.752 0-110.44 24.504-159C366.73904 93.44 425.44304 64 512.01904 64M512.01904 0C371.65104 0 308.51504 66.688 280.28304 122.664c-31.384 62.152-31.384 131.84-31.384 187.84 0 82.56 39.384 176.808 107.336 260.28-16.256 15.352-83.144 48.792-123.336 68.84-79.704 39.872-130.28 66.248-160.52 96.504-66.968 66.96-72.032 179.368-72.36 201.24-0.376 22.824 8.456 44.872 24.504 61.192 16.032 16.24 37.944 25.432 60.8 25.432l853.352 0c22.872 0 44.76-9.184 60.792-25.432 16.04-16.32 24.88-38.376 24.536-61.224-0.344-21.84-5.44-134.248-72.392-201.208-30.192-30.256-80.8-56.632-160.528-96.504-40.192-20.056-107.088-53.496-123.312-68.84 67.92-83.472 107.336-177.72 107.336-260.28 0-56 0-125.688-31.352-187.84C715.50704 66.688 652.36304 0 512.01904 0L512.01904 0z" p-id="23066"></path></svg>