<?xml version="1.0" standalone="no"?><!DOCTYPE svg PUBLIC "-//W3C//DTD SVG 1.1//EN" "http://www.w3.org/Graphics/SVG/1.1/DTD/svg11.dtd"><svg t="1539665686445" class="icon" style="" viewBox="0 0 1024 1024" version="1.1" xmlns="http://www.w3.org/2000/svg" p-id="6562" xmlns:xlink="http://www.w3.org/1999/xlink" width="200" height="200"><defs><style type="text/css"></style></defs><path d="M828.543872 981.112711 159.547588 981.112711 159.547588 46.668212l668.996284 0L828.543872 981.112711 828.543872 981.112711zM190.236899 950.423401l607.617662 0L797.854561 77.357522 190.236899 77.357522 190.236899 950.423401 190.236899 950.423401z" p-id="6563"></path><path d="M669.779884 352.522997 318.311576 352.522997 318.311576 181.456687l351.468308 0L669.779884 352.522997zM567.882166 216.842486 420.210318 216.842486l0 101.227668 147.671848 0L567.882166 216.842486zM642.677131 216.842486l-38.246042 0 0 29.320567 38.246042 0L642.677131 216.842486zM642.677131 274.089303l-38.246042 0 0 14.660284 38.246042 0L642.677131 274.089303zM642.677131 303.40987l-38.246042 0 0 14.660284 38.246042 0L642.677131 303.40987zM383.660372 216.842486l-38.245019 0 0 29.320567 38.245019 0L383.660372 216.842486zM383.660372 274.089303l-38.245019 0 0 14.660284 38.245019 0L383.660372 274.089303zM383.660372 303.40987l-38.245019 0 0 14.660284 38.245019 0L383.660372 303.40987z" p-id="6564"></path><path d="M257.262354 439.672456l22.807273 0 0 22.807273-22.807273 0 0-22.807273Z" p-id="6565"></path><path d="M302.33779 439.672456l22.807273 0 0 22.807273-22.807273 0 0-22.807273Z" p-id="6566"></path><path d="M347.413227 439.672456l22.807273 0 0 22.807273-22.807273 0 0-22.807273Z" p-id="6567"></path><path d="M392.489686 439.672456l22.807273 0 0 22.807273-22.807273 0 0-22.807273Z" p-id="6568"></path><path d="M437.565123 439.672456l22.808296 0 0 22.807273-22.808296 0 0-22.807273Z" p-id="6569"></path><path d="M482.641582 439.672456l22.808296 0 0 22.807273-22.808296 0 0-22.807273Z" p-id="6570"></path><path d="M527.719065 439.672456l22.807273 0 0 22.807273-22.807273 0 0-22.807273Z" p-id="6571"></path><path d="M572.794501 439.672456l22.808296 0 0 22.807273-22.808296 0 0-22.807273Z" p-id="6572"></path><path d="M617.871984 439.672456l22.807273 0 0 22.807273-22.807273 0 0-22.807273Z" p-id="6573"></path><path d="M662.946398 439.672456l22.807273 0 0 22.807273-22.807273 0 0-22.807273Z" p-id="6574"></path><path d="M708.02388 439.672456l22.80625 0 0 22.807273-22.80625 0 0-22.807273Z" p-id="6575"></path><path d="M257.262354 482.637491l22.807273 0 0 22.807273-22.807273 0 0-22.807273Z" p-id="6576"></path><path d="M302.33779 482.637491l22.807273 0 0 22.807273-22.807273 0 0-22.807273Z" p-id="6577"></path><path d="M347.413227 482.637491l22.807273 0 0 22.807273-22.807273 0 0-22.807273Z" p-id="6578"></path><path d="M392.489686 482.637491l22.807273 0 0 22.807273-22.807273 0 0-22.807273Z" p-id="6579"></path><path d="M437.565123 482.637491l22.808296 0 0 22.807273-22.808296 0 0-22.807273Z" p-id="6580"></path><path d="M482.641582 482.637491l22.808296 0 0 22.807273-22.808296 0 0-22.807273Z" p-id="6581"></path><path d="M527.719065 482.637491l22.807273 0 0 22.807273-22.807273 0 0-22.807273Z" p-id="6582"></path><path d="M572.794501 482.637491l22.808296 0 0 22.807273-22.808296 0 0-22.807273Z" p-id="6583"></path><path d="M617.871984 482.637491l22.807273 0 0 22.807273-22.807273 0 0-22.807273Z" p-id="6584"></path><path d="M662.946398 482.637491l22.807273 0 0 22.807273-22.807273 0 0-22.807273Z" p-id="6585"></path><path d="M708.02388 482.637491l22.80625 0 0 22.807273-22.80625 0 0-22.807273Z" p-id="6586"></path><path d="M257.262354 525.602525l22.807273 0 0 22.807273-22.807273 0 0-22.807273Z" p-id="6587"></path><path d="M302.33779 525.602525l22.807273 0 0 22.807273-22.807273 0 0-22.807273Z" p-id="6588"></path><path d="M347.413227 525.602525l22.807273 0 0 22.807273-22.807273 0 0-22.807273Z" p-id="6589"></path><path d="M392.489686 525.602525l22.807273 0 0 22.807273-22.807273 0 0-22.807273Z" p-id="6590"></path><path d="M437.565123 525.602525l22.808296 0 0 22.807273-22.808296 0 0-22.807273Z" p-id="6591"></path><path d="M482.641582 525.602525l22.808296 0 0 22.807273-22.808296 0 0-22.807273Z" p-id="6592"></path><path d="M527.719065 525.602525l22.807273 0 0 22.807273-22.807273 0 0-22.807273Z" p-id="6593"></path><path d="M572.794501 525.602525l22.808296 0 0 22.807273-22.808296 0 0-22.807273Z" p-id="6594"></path><path d="M617.871984 525.602525l22.807273 0 0 22.807273-22.807273 0 0-22.807273Z" p-id="6595"></path><path d="M662.946398 525.602525l22.807273 0 0 22.807273-22.807273 0 0-22.807273Z" p-id="6596"></path><path d="M708.02388 525.602525l22.80625 0 0 22.807273-22.80625 0 0-22.807273Z" p-id="6597"></path><path d="M257.262354 604.371756l22.807273 0 0 22.808296-22.807273 0 0-22.808296Z" p-id="6598"></path><path d="M302.33779 604.371756l22.807273 0 0 22.808296-22.807273 0 0-22.808296Z" p-id="6599"></path><path d="M347.413227 604.371756l22.807273 0 0 22.808296-22.807273 0 0-22.808296Z" p-id="6600"></path><path d="M392.489686 604.371756l22.807273 0 0 22.808296-22.807273 0 0-22.808296Z" p-id="6601"></path><path d="M437.565123 604.371756l22.808296 0 0 22.808296-22.808296 0 0-22.808296Z" p-id="6602"></path><path d="M482.641582 604.371756l22.808296 0 0 22.808296-22.808296 0 0-22.808296Z" p-id="6603"></path><path d="M527.719065 604.371756l22.807273 0 0 22.808296-22.807273 0 0-22.808296Z" p-id="6604"></path><path d="M572.794501 604.371756l22.808296 0 0 22.808296-22.808296 0 0-22.808296Z" p-id="6605"></path><path d="M617.871984 604.371756l22.807273 0 0 22.808296-22.807273 0 0-22.808296Z" p-id="6606"></path><path d="M662.946398 604.371756l22.807273 0 0 22.808296-22.807273 0 0-22.808296Z" p-id="6607"></path><path d="M708.02388 604.371756l22.80625 0 0 22.808296-22.80625 0 0-22.808296Z" p-id="6608"></path><path d="M257.262354 647.336791l22.807273 0 0 22.808296-22.807273 0 0-22.808296Z" p-id="6609"></path><path d="M302.33779 647.336791l22.807273 0 0 22.808296-22.807273 0 0-22.808296Z" p-id="6610"></path><path d="M347.413227 647.336791l22.807273 0 0 22.808296-22.807273 0 0-22.808296Z" p-id="6611"></path><path d="M392.489686 647.336791l22.807273 0 0 22.808296-22.807273 0 0-22.808296Z" p-id="6612"></path><path d="M437.565123 647.336791l22.808296 0 0 22.808296-22.808296 0 0-22.808296Z" p-id="6613"></path><path d="M482.641582 647.336791l22.808296 0 0 22.808296-22.808296 0 0-22.808296Z" p-id="6614"></path><path d="M527.719065 647.336791l22.807273 0 0 22.808296-22.807273 0 0-22.808296Z" p-id="6615"></path><path d="M572.794501 647.336791l22.808296 0 0 22.808296-22.808296 0 0-22.808296Z" p-id="6616"></path><path d="M617.871984 647.336791l22.807273 0 0 22.808296-22.807273 0 0-22.808296Z" p-id="6617"></path><path d="M662.946398 647.336791l22.807273 0 0 22.808296-22.807273 0 0-22.808296Z" p-id="6618"></path><path d="M708.02388 647.336791l22.80625 0 0 22.808296-22.80625 0 0-22.808296Z" p-id="6619"></path><path d="M257.262354 690.301826l22.807273 0 0 22.808296-22.807273 0 0-22.808296Z" p-id="6620"></path><path d="M302.33779 690.301826l22.807273 0 0 22.808296-22.807273 0 0-22.808296Z" p-id="6621"></path><path d="M347.413227 690.301826l22.807273 0 0 22.808296-22.807273 0 0-22.808296Z" p-id="6622"></path><path d="M392.489686 690.301826l22.807273 0 0 22.808296-22.807273 0 0-22.808296Z" p-id="6623"></path><path d="M437.565123 690.301826l22.808296 0 0 22.808296-22.808296 0 0-22.808296Z" p-id="6624"></path><path d="M482.641582 690.301826l22.808296 0 0 22.808296-22.808296 0 0-22.808296Z" p-id="6625"></path><path d="M527.719065 690.301826l22.807273 0 0 22.808296-22.807273 0 0-22.808296Z" p-id="6626"></path><path d="M572.794501 690.301826l22.808296 0 0 22.808296-22.808296 0 0-22.808296Z" p-id="6627"></path><path d="M617.871984 690.301826l22.807273 0 0 22.808296-22.807273 0 0-22.808296Z" p-id="6628"></path><path d="M662.946398 690.301826l22.807273 0 0 22.808296-22.807273 0 0-22.808296Z" p-id="6629"></path><path d="M708.02388 690.301826l22.80625 0 0 22.808296-22.80625 0 0-22.808296Z" p-id="6630"></path><path d="M257.262354 769.071057l22.807273 0 0 22.808296-22.807273 0 0-22.808296Z" p-id="6631"></path><path d="M302.33779 769.071057l22.807273 0 0 22.808296-22.807273 0 0-22.808296Z" p-id="6632"></path><path d="M347.413227 769.071057l22.807273 0 0 22.808296-22.807273 0 0-22.808296Z" p-id="6633"></path><path d="M392.489686 769.071057l22.807273 0 0 22.808296-22.807273 0 0-22.808296Z" p-id="6634"></path><path d="M437.565123 769.071057l22.808296 0 0 22.808296-22.808296 0 0-22.808296Z" p-id="6635"></path><path d="M482.641582 769.071057l22.808296 0 0 22.808296-22.808296 0 0-22.808296Z" p-id="6636"></path><path d="M527.719065 769.071057l22.807273 0 0 22.808296-22.807273 0 0-22.808296Z" p-id="6637"></path><path d="M572.794501 769.071057l22.808296 0 0 22.808296-22.808296 0 0-22.808296Z" p-id="6638"></path><path d="M617.871984 769.071057l22.807273 0 0 22.808296-22.807273 0 0-22.808296Z" p-id="6639"></path><path d="M662.946398 769.071057l22.807273 0 0 22.808296-22.807273 0 0-22.808296Z" p-id="6640"></path><path d="M708.02388 769.071057l22.80625 0 0 22.808296-22.80625 0 0-22.808296Z" p-id="6641"></path><path d="M257.262354 812.036092l22.807273 0 0 22.808296-22.807273 0 0-22.808296Z" p-id="6642"></path><path d="M302.33779 812.036092l22.807273 0 0 22.808296-22.807273 0 0-22.808296Z" p-id="6643"></path><path d="M347.413227 812.036092l22.807273 0 0 22.808296-22.807273 0 0-22.808296Z" p-id="6644"></path><path d="M392.489686 812.036092l22.807273 0 0 22.808296-22.807273 0 0-22.808296Z" p-id="6645"></path><path d="M437.565123 812.036092l22.808296 0 0 22.808296-22.808296 0 0-22.808296Z" p-id="6646"></path><path d="M482.641582 812.036092l22.808296 0 0 22.808296-22.808296 0 0-22.808296Z" p-id="6647"></path><path d="M527.719065 812.036092l22.807273 0 0 22.808296-22.807273 0 0-22.808296Z" p-id="6648"></path><path d="M572.794501 812.036092l22.808296 0 0 22.808296-22.808296 0 0-22.808296Z" p-id="6649"></path><path d="M617.871984 812.036092l22.807273 0 0 22.808296-22.807273 0 0-22.808296Z" p-id="6650"></path><path d="M662.946398 812.036092l22.807273 0 0 22.808296-22.807273 0 0-22.808296Z" p-id="6651"></path><path d="M708.02388 812.036092l22.80625 0 0 22.808296-22.80625 0 0-22.808296Z" p-id="6652"></path><path d="M257.262354 855.001127l22.807273 0 0 22.808296-22.807273 0 0-22.808296Z" p-id="6653"></path><path d="M302.33779 855.001127l22.807273 0 0 22.808296-22.807273 0 0-22.808296Z" p-id="6654"></path><path d="M347.413227 855.001127l22.807273 0 0 22.808296-22.807273 0 0-22.808296Z" p-id="6655"></path><path d="M392.489686 855.001127l22.807273 0 0 22.808296-22.807273 0 0-22.808296Z" p-id="6656"></path><path d="M437.565123 855.001127l22.808296 0 0 22.808296-22.808296 0 0-22.808296Z" p-id="6657"></path><path d="M482.641582 855.001127l22.808296 0 0 22.808296-22.808296 0 0-22.808296Z" p-id="6658"></path><path d="M527.719065 855.001127l22.807273 0 0 22.808296-22.807273 0 0-22.808296Z" p-id="6659"></path><path d="M572.794501 855.001127l22.808296 0 0 22.808296-22.808296 0 0-22.808296Z" p-id="6660"></path><path d="M617.871984 855.001127l22.807273 0 0 22.808296-22.807273 0 0-22.808296Z" p-id="6661"></path><path d="M662.946398 855.001127l22.807273 0 0 22.808296-22.807273 0 0-22.808296Z" p-id="6662"></path><path d="M708.02388 855.001127l22.80625 0 0 22.808296-22.80625 0 0-22.808296Z" p-id="6663"></path><path d="M832.112016 981.112711 163.115732 981.112711 163.115732 46.668212l668.997307 0L832.113039 981.112711 832.112016 981.112711zM193.805043 950.423401l607.618685 0L801.423728 77.357522 193.805043 77.357522 193.805043 950.423401 193.805043 950.423401zM669.779884 352.522997 318.311576 352.522997 318.311576 181.456687l351.468308 0L669.779884 352.522997zM567.882166 216.842486 420.210318 216.842486l0 101.227668 147.671848 0L567.882166 216.842486zM642.677131 216.842486l-38.246042 0 0 29.320567 38.246042 0L642.677131 216.842486zM642.677131 274.089303l-38.246042 0 0 14.660284 38.246042 0L642.677131 274.089303zM642.677131 303.40987l-38.246042 0 0 14.660284 38.246042 0L642.677131 303.40987zM383.660372 216.842486l-38.245019 0 0 29.320567 38.245019 0L383.660372 216.842486zM383.660372 274.089303l-38.245019 0 0 14.660284 38.245019 0L383.660372 274.089303zM383.660372 303.40987l-38.245019 0 0 14.660284 38.245019 0L383.660372 303.40987zM346.362629 473.740659l-70.467772 0 0-20.45954 70.467772 0L346.362629 473.740659 346.362629 473.740659zM346.362629 515.682717l0-20.45954-70.467772 0 0 20.45954L346.362629 515.682717 346.362629 515.682717zM346.362629 557.624775l0-20.45954-70.467772 0 0 20.45954L346.362629 557.624775 346.362629 557.624775zM439.453538 473.740659l-70.467772 0 0-20.45954 70.467772 0L439.453538 473.740659 439.453538 473.740659zM439.453538 515.682717l0-20.45954-70.467772 0 0 20.45954L439.453538 515.682717 439.453538 515.682717zM439.453538 557.624775l0-20.45954-70.467772 0 0 20.45954L439.453538 557.624775 439.453538 557.624775zM532.544448 473.740659l-70.467772 0 0-20.45954 70.467772 0L532.544448 473.740659 532.544448 473.740659zM532.544448 515.682717l0-20.45954-70.467772 0 0 20.45954L532.544448 515.682717 532.544448 515.682717zM532.544448 557.624775l0-20.45954-70.467772 0 0 20.45954L532.544448 557.624775 532.544448 557.624775zM625.635357 473.740659l-70.467772 0 0-20.45954 70.467772 0L625.635357 473.740659 625.635357 473.740659zM625.635357 515.682717l0-20.45954-70.467772 0 0 20.45954L625.635357 515.682717 625.635357 515.682717zM625.635357 557.624775l0-20.45954-70.467772 0 0 20.45954L625.635357 557.624775 625.635357 557.624775zM718.726266 473.740659l-70.467772 0 0-20.45954 70.467772 0L718.726266 473.740659 718.726266 473.740659zM718.726266 515.682717l0-20.45954-70.467772 0 0 20.45954L718.726266 515.682717 718.726266 515.682717zM718.726266 557.624775l0-20.45954-70.467772 0 0 20.45954L718.726266 557.624775 718.726266 557.624775zM346.362629 628.21019l-70.467772 0 0-20.45954 70.467772 0L346.362629 628.21019 346.362629 628.21019zM346.362629 670.152248l0-20.45954-70.467772 0 0 20.45954L346.362629 670.152248 346.362629 670.152248zM346.362629 712.094306l0-20.45954-70.467772 0 0 20.45954L346.362629 712.094306 346.362629 712.094306zM439.453538 628.21019l-70.467772 0 0-20.45954 70.467772 0L439.453538 628.21019 439.453538 628.21019zM439.453538 670.152248l0-20.45954-70.467772 0 0 20.45954L439.453538 670.152248 439.453538 670.152248zM439.453538 712.094306l0-20.45954-70.467772 0 0 20.45954L439.453538 712.094306 439.453538 712.094306zM532.544448 628.21019l-70.467772 0 0-20.45954 70.467772 0L532.544448 628.21019 532.544448 628.21019zM532.544448 670.152248l0-20.45954-70.467772 0 0 20.45954L532.544448 670.152248 532.544448 670.152248zM532.544448 712.094306l0-20.45954-70.467772 0 0 20.45954L532.544448 712.094306 532.544448 712.094306zM625.635357 628.21019l-70.467772 0 0-20.45954 70.467772 0L625.635357 628.21019 625.635357 628.21019zM625.635357 670.152248l0-20.45954-70.467772 0 0 20.45954L625.635357 670.152248 625.635357 670.152248zM625.635357 712.094306l0-20.45954-70.467772 0 0 20.45954L625.635357 712.094306 625.635357 712.094306zM718.726266 628.21019l-70.467772 0 0-20.45954 70.467772 0L718.726266 628.21019 718.726266 628.21019zM718.726266 670.152248l0-20.45954-70.467772 0 0 20.45954L718.726266 670.152248 718.726266 670.152248zM718.726266 712.094306l0-20.45954-70.467772 0 0 20.45954L718.726266 712.094306 718.726266 712.094306zM346.362629 782.67972l-70.467772 0 0-20.45954 70.467772 0L346.362629 782.67972 346.362629 782.67972zM346.362629 824.621778l0-20.45954-70.467772 0 0 20.45954L346.362629 824.621778 346.362629 824.621778zM346.362629 866.563836l0-20.45954-70.467772 0 0 20.45954L346.362629 866.563836 346.362629 866.563836zM439.453538 782.67972l-70.467772 0 0-20.45954 70.467772 0L439.453538 782.67972 439.453538 782.67972zM439.453538 824.621778l0-20.45954-70.467772 0 0 20.45954L439.453538 824.621778 439.453538 824.621778zM439.453538 866.563836l0-20.45954-70.467772 0 0 20.45954L439.453538 866.563836 439.453538 866.563836zM532.544448 782.67972l-70.467772 0 0-20.45954 70.467772 0L532.544448 782.67972 532.544448 782.67972zM532.544448 824.621778l0-20.45954-70.467772 0 0 20.45954L532.544448 824.621778 532.544448 824.621778zM532.544448 866.563836l0-20.45954-70.467772 0 0 20.45954L532.544448 866.563836 532.544448 866.563836zM625.635357 782.67972l-70.467772 0 0-20.45954 70.467772 0L625.635357 782.67972 625.635357 782.67972zM625.635357 824.621778l0-20.45954-70.467772 0 0 20.45954L625.635357 824.621778 625.635357 824.621778zM625.635357 866.563836l0-20.45954-70.467772 0 0 20.45954L625.635357 866.563836 625.635357 866.563836zM718.726266 782.67972l-70.467772 0 0-20.45954 70.467772 0L718.726266 782.67972 718.726266 782.67972zM718.726266 824.621778l0-20.45954-70.467772 0 0 20.45954L718.726266 824.621778 718.726266 824.621778zM718.726266 866.563836l0-20.45954-70.467772 0 0 20.45954L718.726266 866.563836 718.726266 866.563836z" p-id="6664"></path></svg>