<?xml version="1.0" standalone="no"?><!DOCTYPE svg PUBLIC "-//W3C//DTD SVG 1.1//EN" "http://www.w3.org/Graphics/SVG/1.1/DTD/svg11.dtd"><svg t="1535781661777" class="icon" style="" viewBox="0 0 1024 1024" version="1.1" xmlns="http://www.w3.org/2000/svg" p-id="7346" xmlns:xlink="http://www.w3.org/1999/xlink" width="200" height="200"><defs><style type="text/css"></style></defs><path d="M619.008 673.28c-90.112 77.824-62.976-58.88-58.88-77.824 4.096-18.944 62.976-136.704 19.968-156.16C537.088 419.328 404.48 517.12 404.48 517.12s-22.016 15.872-19.968 19.968c14.336 25.088 77.824-19.968 77.824-19.968s22.016-17.92 19.968 0c-18.944 76.8-32.256 155.136-38.912 233.984 9.728 51.712 91.648 30.208 155.648-38.912s19.968-38.912 19.968-38.912zM566.784 379.392c37.888 2.048 69.632-26.624 71.68-64.512s-26.624-69.632-64.512-71.68-69.632 26.624-71.68 64.512c-2.048 37.376 27.136 69.632 64.512 71.68z" p-id="7347"></path><path d="M512 66.56c245.76 0 445.44 199.68 445.44 445.44s-199.68 445.44-445.44 445.44-445.44-199.68-445.44-445.44 199.68-445.44 445.44-445.44m0-66.56C229.376 0 0 229.376 0 512s229.376 512 512 512 512-229.376 512-512S794.624 0 512 0z" p-id="7348"></path></svg>