<?xml version="1.0" standalone="no"?><!DOCTYPE svg PUBLIC "-//W3C//DTD SVG 1.1//EN" "http://www.w3.org/Graphics/SVG/1.1/DTD/svg11.dtd"><svg t="1556348030530" class="icon" style="" viewBox="0 0 1024 1024" version="1.1" xmlns="http://www.w3.org/2000/svg" p-id="17906" xmlns:xlink="http://www.w3.org/1999/xlink" width="128" height="128"><defs><style type="text/css"></style></defs><path d="M512 89.6c112.82944 0 218.90048 43.93728 298.68032 123.71712C890.46016 293.09952 934.4 399.17312 934.4 512c0 112.82944-43.93984 218.90048-123.71968 298.68032S624.82944 934.4 512 934.4c-112.82688 0-218.90304-43.93984-298.68288-123.71968S89.6 624.82944 89.6 512c0-112.82688 43.93728-218.90048 123.71712-298.68288C293.09952 133.53728 399.17312 89.6 512 89.6m0-64C243.3664 25.6 25.6 243.36896 25.6 512s217.7664 486.4 486.4 486.4c268.63104 0 486.4-217.76896 486.4-486.4S780.63104 25.6 512 25.6z" p-id="17909"></path><path d="M451.2 419.2H203.2c-11.2 0-20.8-9.6-20.8-20.8s9.6-20.8 20.8-20.8h246.4c11.2 0 20.8 9.6 20.8 20.8s-8 20.8-19.2 20.8zM451.2 558.4H196.8c-11.2 0-20.8-9.6-20.8-20.8s9.6-20.8 20.8-20.8h254.4c11.2 0 20.8 9.6 20.8 20.8s-9.6 20.8-20.8 20.8zM403.2 697.6H196.8c-11.2 0-20.8-9.6-20.8-20.8s9.6-20.8 20.8-20.8h206.4c11.2 0 20.8 9.6 20.8 20.8s-9.6 20.8-20.8 20.8zM649.6 566.4c-75.2 0-137.6-60.8-137.6-137.6s60.8-137.6 137.6-137.6 137.6 60.8 137.6 137.6-62.4 137.6-137.6 137.6z m0-233.6c-52.8 0-97.6 43.2-97.6 97.6s43.2 97.6 97.6 97.6 97.6-43.2 97.6-97.6-44.8-97.6-97.6-97.6z" fill="" p-id="17908"></path><path d="M812.8 708.8c-11.2 0-19.2-8-19.2-19.2 0-4.8-8-116.8-145.6-123.2h-9.6c-116.8 0-137.6 121.6-139.2 126.4-1.6 11.2-12.8 17.6-22.4 16-11.2-1.6-17.6-11.2-16-22.4 9.6-57.6 60.8-166.4 190.4-160 174.4 9.6 182.4 160 182.4 161.6 0 11.2-8 20.8-20.8 20.8z" fill="" p-id="17909"></path></svg>