<?xml version="1.0" standalone="no"?><!DOCTYPE svg PUBLIC "-//W3C//DTD SVG 1.1//EN" "http://www.w3.org/Graphics/SVG/1.1/DTD/svg11.dtd"><svg t="1535781753305" class="icon" style="" viewBox="0 0 1024 1024" version="1.1" xmlns="http://www.w3.org/2000/svg" p-id="11432" xmlns:xlink="http://www.w3.org/1999/xlink" width="200" height="200"><defs><style type="text/css"></style></defs><path d="M510.4 1017.6C232 1017.6 4.8 790.4 4.8 512S232 6.4 510.4 6.4 1014.4 233.6 1014.4 512 788.8 1017.6 510.4 1017.6z m0-971.2C252.8 46.4 44.8 256 44.8 512s208 465.6 465.6 465.6c256 0 465.6-208 465.6-465.6-1.6-256-209.6-465.6-465.6-465.6z" fill="" p-id="11433"></path><path d="M451.2 419.2H203.2c-11.2 0-20.8-9.6-20.8-20.8s9.6-20.8 20.8-20.8h246.4c11.2 0 20.8 9.6 20.8 20.8s-8 20.8-19.2 20.8zM451.2 558.4H196.8c-11.2 0-20.8-9.6-20.8-20.8s9.6-20.8 20.8-20.8h254.4c11.2 0 20.8 9.6 20.8 20.8s-9.6 20.8-20.8 20.8zM403.2 697.6H196.8c-11.2 0-20.8-9.6-20.8-20.8s9.6-20.8 20.8-20.8h206.4c11.2 0 20.8 9.6 20.8 20.8s-9.6 20.8-20.8 20.8zM649.6 566.4c-75.2 0-137.6-60.8-137.6-137.6s60.8-137.6 137.6-137.6 137.6 60.8 137.6 137.6-62.4 137.6-137.6 137.6z m0-233.6c-52.8 0-97.6 43.2-97.6 97.6s43.2 97.6 97.6 97.6 97.6-43.2 97.6-97.6-44.8-97.6-97.6-97.6z" fill="" p-id="11434"></path><path d="M812.8 708.8c-11.2 0-19.2-8-19.2-19.2 0-4.8-8-116.8-145.6-123.2h-9.6c-116.8 0-137.6 121.6-139.2 126.4-1.6 11.2-12.8 17.6-22.4 16-11.2-1.6-17.6-11.2-16-22.4 9.6-57.6 60.8-166.4 190.4-160 174.4 9.6 182.4 160 182.4 161.6 0 11.2-8 20.8-20.8 20.8z" fill="" p-id="11435"></path></svg>