<?xml version="1.0" standalone="no"?><!DOCTYPE svg PUBLIC "-//W3C//DTD SVG 1.1//EN" "http://www.w3.org/Graphics/SVG/1.1/DTD/svg11.dtd"><svg t="1539670455983" class="icon" style="" viewBox="0 0 1024 1024" version="1.1" xmlns="http://www.w3.org/2000/svg" p-id="12327" xmlns:xlink="http://www.w3.org/1999/xlink" width="200" height="200"><defs><style type="text/css"></style></defs><path d="M540.601408 110.372783c9.67843 11.775184 21.833261 27.344788 36.652781 47.499827 35.425837 48.178279 74.159 106.334817 109.063975 163.757644 40.838104 67.185168 75.061556 131.126456 98.971106 184.913477 34.001395 76.490092 41.148166 118.231775 41.156352 139.76623 0 34.564213-7.680936 68.12047-22.828938 99.736539-14.795984 30.880311-36.07052 58.69275-63.23316 82.664721-27.478841 24.251334-59.558467 43.319621-95.346555 56.675814-37.291324 13.916964-76.963882 20.973684-117.915573 20.973684-40.952714 0-80.629365-7.05672-117.92683-20.973684-35.795251-13.356193-67.88204-32.426527-95.369068-56.678884-27.169803-23.972994-48.451502-51.785433-63.251579-82.665745-15.153118-31.616068-22.836101-65.170279-22.836101-99.732445 0-69.40472 52.345182-137.446395 118.616538-223.589334C408.700309 341.676823 484.629629 242.977917 540.601408 110.372783M527.120372 48.126091c-109.697401 306.245869-334.567915 435.256128-334.567915 598.183871 0 163.102728 149.795655 295.235095 334.568938 295.235095 184.77226 0 334.509587-132.131343 334.509587-295.235095C861.570607 483.382219 561.566906 54.426587 527.120372 48.126091L527.120372 48.126091z" p-id="12328"></path><path d="M614.515838 577.452711l0-159.339008c0-40.808428-35.847439-73.774237-80.016405-73.774237s-80.016405 32.966832-80.016405 73.774237l0 159.337985c-33.553187 23.845081-55.317886 62.198597-55.317886 105.460914 0 72.228021 60.544935 130.745786 135.333268 130.745786s135.333268-58.518788 135.333268-130.745786C669.833725 639.598096 648.069025 601.297792 614.515838 577.452711zM534.500457 778.132266c-54.411237 0-98.419544-42.621726-98.419544-95.16543 0-20.590967 6.827499-39.794331 18.403139-55.42431 9.54847-12.642948 22.297842-23.098068 36.913724-29.979802L491.397776 559.101761 491.397776 445.905676c0-29.872355 19.364023-53.984518 43.101657-53.984518s43.101657 24.111141 43.101657 53.984518l0 151.657049c14.615882 6.934946 27.418466 17.336854 36.913724 29.979802 11.57564 15.629979 18.404162 34.833343 18.404162 55.42431C632.92 735.51054 588.857459 778.132266 534.500457 778.132266zM559.038316 621.995183 559.038316 492.848824l-49.129954 0 0 129.198547c-25.231661 9.495258-43.101657 33.232892-43.101657 60.865229 0 36.113499 30.352285 65.452711 67.693752 65.452711 37.340443 0 67.64054-29.339212 67.64054-65.452711C602.139973 655.281287 584.269977 631.543653 559.038316 621.995183z" p-id="12329"></path></svg>