<?xml version="1.0" standalone="no"?><!DOCTYPE svg PUBLIC "-//W3C//DTD SVG 1.1//EN" "http://www.w3.org/Graphics/SVG/1.1/DTD/svg11.dtd"><svg t="1539827961839" class="icon" style="" viewBox="0 0 1024 1024" version="1.1" xmlns="http://www.w3.org/2000/svg" p-id="15545" xmlns:xlink="http://www.w3.org/1999/xlink" width="200" height="200"><defs><style type="text/css"></style></defs><path d="M512 142.72c-231.68 0-419.84 133.12-419.84 296.32v145.28a262.4 262.4 0 0 0 128 208.64A519.68 519.68 0 0 0 512 881.28c229.12 0 417.28-131.84 419.84-293.76V439.68c0-163.84-188.16-296.96-419.84-296.96zM704 256l54.4-27.52a384 384 0 0 1 38.4 23.68l-82.56 17.28z m0 72.32c0 68.48-85.12 124.16-192 124.16S320 396.8 320 328.32s90.88-124.16 192-124.16 192 55.68 192 124.16zM474.88 474.88L428.8 704a494.08 494.08 0 0 1-149.76-46.08l134.4-199.04a279.04 279.04 0 0 0 61.44 16z m25.6 0H512a269.44 269.44 0 0 0 148.48-41.6l165.12 170.24A472.96 472.96 0 0 1 512 711.04a572.16 572.16 0 0 1-57.6 0z m343.68 108.8l-160-165.76a154.24 154.24 0 0 0 24.32-26.88L896 499.2a234.88 234.88 0 0 1-52.48 86.4z m64-146.56a192 192 0 0 1-3.2 33.92L720.64 371.2a105.6 105.6 0 0 0 0-80l97.28-20.48a224.64 224.64 0 0 1 88.32 168.96z m-179.2-227.2l-44.8 22.4A256 256 0 0 0 512 178.56a225.28 225.28 0 0 0-199.04 99.2H198.4A472.96 472.96 0 0 1 512 168.32a527.36 527.36 0 0 1 215.04 43.52zM173.44 300.8h128a101.12 101.12 0 0 0 0 39.04l-167.04 21.12a239.36 239.36 0 0 1 39.04-60.16zM128 387.2l179.2-22.4A161.28 161.28 0 0 0 390.4 448L256 646.4a248.96 248.96 0 0 1-138.24-206.72A192 192 0 0 1 128 387.2z m778.24 197.12c0 148.48-178.56 268.8-394.24 268.8a494.08 494.08 0 0 1-279.68-80 237.44 237.44 0 0 1-115.2-192v-40.32C176 654.72 330.88 736 512 736s336-81.28 394.24-195.2z" p-id="15546"></path><path d="M512 224.64c-80.64 0-146.56 46.08-146.56 103.04S434.56 431.36 512 431.36s149.76-47.36 149.76-103.04S595.84 224.64 512 224.64z m0 181.12c-64 0-121.6-35.2-121.6-78.08S448 250.24 512 250.24s121.6 35.2 121.6 78.08S581.76 405.76 512 405.76z" p-id="15547"></path></svg>