<?xml version="1.0" standalone="no"?><!DOCTYPE svg PUBLIC "-//W3C//DTD SVG 1.1//EN" "http://www.w3.org/Graphics/SVG/1.1/DTD/svg11.dtd"><svg t="1555897427616" class="icon" style="" viewBox="0 0 1024 1024" version="1.1" xmlns="http://www.w3.org/2000/svg" p-id="18632" xmlns:xlink="http://www.w3.org/1999/xlink" width="128" height="128"><defs><style type="text/css"></style></defs><path d="M440.3 104.5h-81.5c-44.7 0-81.3 36.6-81.3 81.3v691.5c0 44.7 36.6 81.3 81.3 81.3H684c44.7 0 81.3-36.6 81.3-81.3V185.9c0-44.7-36.6-81.3-81.3-81.3h-81.3c0-22.4-18.3-40.7-40.7-40.7h-81.3c-22.1 0-40.4 18.3-40.4 40.6z m40.5 40.7H684c22.4 0 40.7 18.3 40.7 40.7v691.3c0 22.4-18.3 40.8-40.7 40.8H358.8c-22.4 0-40.8-18.3-40.8-40.8V185.9c0-22.4 18.3-40.7 40.8-40.7h122z" p-id="18633"></path></svg>